<?xml version="1.0" standalone="no"?>
<!DOCTYPE svg PUBLIC "-//W3C//DTD SVG 20010904//EN"
 "http://www.w3.org/TR/2001/REC-SVG-20010904/DTD/svg10.dtd">
<svg version="1.0" xmlns="http://www.w3.org/2000/svg"
 width="903.000000pt" height="903.000000pt" viewBox="0 0 903.000000 903.000000"
 preserveAspectRatio="xMidYMid meet">
<metadata>
Created by potrace 1.14, written by Peter Selinger 2001-2017
</metadata>
<g transform="translate(0.000000,903.000000) scale(0.100000,-0.100000)"
fill="#000000" stroke="none">
<path d="M4396 7063 c-1 -1 -34 -3 -74 -5 -40 -1 -72 -6 -72 -10 0 -4 -5 -8
-11 -8 -5 0 -8 4 -5 8 3 5 -1 9 -8 9 -9 0 -12 -7 -8 -16 5 -14 3 -14 -10 -3
-9 7 -19 9 -22 4 -3 -5 -24 -10 -47 -10 -23 -1 -45 -6 -49 -12 -4 -6 -26 -11
-49 -12 -23 0 -44 -4 -47 -9 -3 -5 -18 -9 -35 -9 -21 0 -29 -5 -29 -17 0 -14
-2 -15 -9 -4 -6 9 -11 10 -15 2 -4 -6 -12 -9 -17 -5 -6 3 -17 -2 -25 -12 -9
-11 -12 -12 -8 -4 6 12 4 13 -7 3 -7 -7 -24 -13 -37 -13 -13 0 -20 -4 -17 -10
4 -6 -5 -10 -19 -10 -14 0 -26 -4 -26 -10 0 -5 -11 -10 -25 -10 -14 0 -25 -5
-25 -11 0 -5 -4 -7 -10 -4 -5 3 -10 1 -10 -5 0 -6 -4 -9 -9 -6 -5 3 -11 -1
-15 -9 -3 -8 -14 -15 -25 -15 -11 0 -21 -5 -23 -11 -2 -5 -10 -11 -18 -13 -25
-5 -70 -29 -70 -38 0 -4 -7 -8 -16 -8 -8 0 -13 -4 -10 -8 2 -4 -4 -8 -14 -9
-22 -2 -61 -34 -54 -45 3 -4 -1 -5 -9 -2 -8 3 -17 -2 -20 -10 -4 -9 -13 -16
-22 -16 -8 0 -15 -4 -15 -10 0 -5 -7 -10 -16 -10 -8 0 -12 -4 -9 -10 3 -5 0
-10 -8 -10 -8 0 -17 -7 -21 -15 -3 -8 -13 -15 -23 -15 -15 0 -16 -2 -3 -10 13
-8 12 -10 -3 -10 -22 0 -68 -40 -46 -40 12 0 12 -2 -1 -10 -9 -6 -17 -5 -22 3
-5 8 -8 6 -8 -5 0 -10 -4 -18 -10 -18 -5 0 -10 -7 -10 -16 0 -8 -4 -13 -9 -10
-5 3 -12 -1 -15 -10 -3 -8 -10 -12 -16 -9 -5 3 -10 -1 -10 -11 0 -9 -10 -26
-22 -38 -35 -34 -68 -75 -68 -85 0 -5 -16 -26 -35 -47 -20 -21 -33 -44 -30
-52 4 -10 0 -12 -10 -8 -9 3 -14 2 -10 -3 3 -5 -1 -16 -9 -24 -8 -8 -12 -17
-9 -21 4 -3 0 -6 -7 -6 -7 0 -11 -3 -7 -6 3 -3 -3 -15 -13 -27 -11 -11 -17
-24 -14 -29 3 -4 0 -8 -5 -8 -6 0 -11 -11 -11 -25 0 -15 -5 -24 -12 -23 -8 2
-13 -6 -12 -19 1 -13 -3 -20 -7 -17 -8 5 -10 0 -13 -34 -1 -7 -7 -17 -14 -21
-8 -5 -13 -11 -13 -15 4 -26 0 -36 -11 -30 -8 5 -7 0 2 -11 9 -11 10 -16 3
-11 -12 6 -18 -11 -14 -36 0 -5 -3 -8 -7 -8 -8 0 -12 -14 -13 -52 0 -10 -7
-18 -16 -18 -13 0 -14 -2 -2 -17 12 -14 12 -16 0 -8 -11 6 -13 3 -9 -12 3 -11
1 -28 -4 -37 -7 -13 -4 -16 19 -16 15 0 228 -1 472 -1 447 1 474 3 454 35 -3
5 -1 6 5 2 12 -7 16 5 13 32 -1 7 5 15 14 18 8 3 15 13 15 21 0 8 5 11 10 8 6
-4 10 5 10 19 0 14 5 26 10 26 6 0 10 7 10 16 0 8 5 12 10 9 6 -3 10 1 10 9 0
9 5 16 11 16 5 0 7 5 4 10 -3 6 1 10 10 10 9 0 14 4 11 8 -3 5 4 15 15 22 10
8 19 20 19 27 0 7 4 12 8 10 5 -1 24 14 42 33 18 19 37 36 41 36 5 1 14 2 20
3 5 0 7 6 4 11 -3 6 1 10 9 10 9 0 16 5 16 10 0 6 12 10 28 10 21 0 24 2 12
10 -12 8 -11 10 8 10 12 0 22 6 22 13 0 8 4 7 10 -3 8 -13 10 -12 10 3 0 10 4
16 9 13 5 -3 14 1 21 10 7 8 19 13 26 10 6 -2 20 2 31 9 10 8 32 15 49 15 16
0 36 6 43 13 11 10 13 9 7 -3 -6 -13 -5 -12 6 0 9 12 31 16 81 15 51 0 67 3
67 14 0 11 5 9 22 -5 19 -16 20 -16 9 -1 -12 15 -11 17 5 14 11 -1 24 -6 31
-10 6 -4 14 -3 17 1 6 11 36 9 55 -3 10 -5 12 -4 7 3 -11 19 5 14 20 -5 13
-17 13 -17 14 2 l1 20 9 -20 c5 -11 9 -14 9 -7 1 6 6 12 12 12 5 0 8 -3 6 -8
-3 -4 16 -7 41 -7 29 0 52 -6 60 -15 10 -11 11 -11 6 -1 -5 10 -3 12 7 5 16
-10 20 -11 50 -13 11 0 18 -4 16 -8 -3 -5 9 -9 26 -9 17 -1 33 -6 35 -13 2 -6
12 -11 22 -11 10 0 21 -4 25 -9 7 -13 64 -41 82 -41 7 0 13 -4 13 -10 0 -5 7
-10 16 -10 8 0 12 -4 9 -10 -3 -5 1 -10 9 -10 9 0 16 -4 16 -9 0 -5 9 -13 20
-16 11 -3 20 -14 20 -22 0 -9 3 -14 6 -10 7 7 84 -67 84 -81 0 -5 14 -24 30
-43 17 -18 40 -53 52 -76 12 -24 26 -43 31 -43 5 0 7 -9 4 -20 -3 -11 0 -18 7
-17 6 1 12 -13 14 -31 2 -18 8 -30 13 -27 5 4 9 -5 9 -19 0 -14 6 -26 13 -26
8 0 7 -4 -3 -10 -13 -9 -13 -10 1 -10 11 0 15 -9 14 -35 -1 -20 3 -35 9 -35 6
0 4 -5 -4 -10 -13 -9 -13 -10 0 -10 12 0 16 -15 18 -62 2 -35 8 -65 13 -66 6
-2 4 -11 -3 -20 -10 -12 -10 -14 0 -8 9 6 12 -33 12 -179 0 -116 4 -194 11
-207 7 -12 7 -18 1 -14 -13 8 -10 -17 4 -35 5 -8 9 -40 9 -71 0 -31 3 -56 9
-55 5 1 10 -14 12 -33 3 -59 4 -61 12 -56 4 2 8 -3 9 -12 1 -9 2 -31 4 -49 1
-18 6 -30 11 -27 4 3 8 -6 8 -20 0 -14 6 -26 13 -26 8 0 7 -4 -3 -10 -9 -6
-11 -13 -5 -17 14 -11 39 -56 26 -48 -6 3 -11 2 -11 -3 0 -6 7 -12 15 -16 8
-3 15 -15 15 -26 0 -11 5 -20 10 -20 6 0 9 -3 9 -7 -5 -29 5 -54 29 -78 15
-16 20 -25 12 -20 -9 5 -7 -1 5 -15 13 -15 15 -21 5 -16 -9 4 -8 2 3 -7 9 -8
17 -22 17 -31 0 -10 5 -14 10 -11 6 4 10 -5 10 -20 0 -15 4 -24 10 -20 6 3 10
-1 10 -9 0 -9 8 -16 18 -17 9 0 12 -3 5 -5 -12 -5 -11 -7 39 -66 10 -11 15
-25 12 -29 -3 -5 2 -9 10 -9 9 0 16 -7 16 -15 0 -8 5 -15 11 -15 5 0 7 -4 4
-10 -3 -5 1 -10 9 -10 9 0 16 -9 16 -20 0 -12 7 -20 16 -20 11 0 14 -5 10 -16
-4 -12 -2 -15 9 -10 8 3 15 1 15 -5 0 -18 111 -120 122 -113 8 5 9 1 5 -10 -4
-10 -3 -15 3 -11 6 3 10 1 10 -5 0 -6 5 -8 10 -5 6 3 10 -2 10 -11 0 -10 3
-14 7 -11 3 4 17 -5 30 -19 12 -14 23 -21 23 -17 0 4 5 0 11 -9 5 -10 17 -18
24 -18 8 0 15 -4 15 -8 0 -5 12 -15 28 -23 15 -7 41 -24 58 -36 17 -13 36 -23
42 -23 7 0 12 -5 12 -12 0 -6 3 -8 6 -5 9 9 46 -12 40 -22 -3 -5 5 -7 19 -6
14 2 26 -3 29 -12 4 -9 13 -13 21 -9 9 3 18 -1 21 -9 4 -8 17 -15 31 -15 14 0
22 -4 18 -10 -4 -6 -3 -10 2 -9 29 5 63 -3 63 -15 0 -8 9 -12 25 -10 14 1 32
-4 39 -12 8 -8 27 -15 43 -16 15 -1 33 -5 38 -8 9 -6 24 -8 73 -12 6 -1 12 -5
12 -10 0 -5 5 -6 10 -3 6 3 15 3 22 -1 7 -4 30 -9 51 -10 21 -2 46 -9 55 -16
12 -10 14 -10 8 0 -4 6 -2 12 3 12 6 0 11 -4 11 -9 0 -5 17 -9 38 -9 63 1 122
-6 122 -14 0 -4 8 -8 18 -8 14 0 15 2 2 10 -13 8 -12 10 3 10 9 0 17 -5 17
-12 0 -9 3 -9 12 0 7 7 17 12 22 12 6 0 4 -5 -4 -10 -12 -8 -9 -10 13 -10 16
0 26 4 22 10 -3 5 -1 10 4 10 6 0 11 -4 11 -10 0 -5 7 -10 16 -10 8 0 12 5 9
10 -3 6 -1 10 4 10 6 0 11 -5 11 -12 0 -9 3 -9 12 0 7 7 17 12 22 12 6 0 4 -5
-4 -10 -12 -8 -9 -10 13 -10 16 0 26 4 22 10 -3 6 -1 10 4 10 6 0 11 -5 11
-11 0 -8 6 -7 17 2 11 10 14 10 9 2 -5 -9 0 -13 16 -13 17 0 19 3 9 9 -8 6 14
10 60 11 41 1 91 2 112 3 20 1 37 6 37 12 0 7 21 11 54 10 36 0 52 3 46 10 -5
6 8 11 40 12 26 2 60 9 75 17 15 8 36 13 46 11 11 -2 17 0 14 6 -6 9 7 13 33
10 6 -1 12 3 12 8 0 6 7 7 17 4 11 -4 14 -3 9 5 -5 8 1 12 18 12 14 0 26 5 26
10 0 6 11 10 25 10 14 0 25 5 25 10 0 6 12 10 27 10 14 0 23 3 20 7 -10 9 43
34 56 26 6 -3 7 -1 3 5 -4 7 -1 12 8 12 9 0 16 5 16 10 0 6 8 10 19 10 10 0
31 12 46 28 16 15 25 21 21 14 -7 -11 -4 -11 12 -1 12 7 18 17 16 21 -3 4 2 8
10 8 9 0 16 5 16 10 0 6 9 10 20 10 11 0 20 7 20 16 0 8 5 12 10 9 6 -3 13 1
16 9 3 9 13 16 21 16 8 0 11 5 8 10 -4 6 5 10 19 10 14 0 26 5 26 11 0 5 -5 7
-12 3 -7 -4 -8 -3 -4 5 4 6 12 9 17 6 5 -4 12 1 15 9 3 9 13 16 21 16 8 0 11
5 8 10 -3 6 1 10 9 10 9 0 16 7 16 16 0 8 5 12 10 9 6 -3 10 1 10 10 0 9 5 13
10 10 6 -3 10 -1 10 5 0 14 25 40 39 40 6 0 11 7 11 16 0 8 5 12 10 9 6 -3 10
1 10 9 0 9 5 16 11 16 5 0 7 5 4 10 -3 6 1 10 10 10 9 0 13 5 10 10 -3 6 -1
10 4 10 6 0 11 7 11 16 0 8 5 12 10 9 6 -3 10 1 10 9 0 9 5 16 10 16 6 0 10
12 10 28 0 19 3 23 9 13 7 -11 10 -9 16 8 3 11 10 21 14 21 8 0 37 70 34 82
-2 4 3 7 10 5 6 -1 11 4 9 12 -2 8 3 18 10 22 13 8 14 12 17 45 0 8 6 12 11 9
9 -5 15 23 11 48 0 4 4 7 9 7 6 0 10 12 10 26 0 14 4 23 10 19 8 -5 15 31 11
58 0 4 4 7 10 7 5 0 7 5 4 10 -3 6 -2 10 3 10 5 0 9 14 10 31 0 17 7 38 14 47
11 13 11 15 -2 7 -12 -6 -13 -5 -2 6 6 7 12 34 12 60 0 26 4 50 8 53 8 5 15
84 15 173 0 24 4 40 10 36 5 -3 4 4 -2 16 -11 20 -8 26 14 21 5 -1 2 7 -8 18
-19 21 -23 37 -6 26 8 -4 8 0 0 15 -11 20 -8 26 14 21 5 -1 2 7 -8 18 -19 21
-23 37 -6 26 8 -4 8 0 0 15 -11 20 -8 26 13 22 5 -1 3 5 -4 14 -18 21 -23 68
-7 58 7 -4 6 0 -2 10 -12 15 -11 17 5 18 16 0 16 2 3 7 -19 9 -18 60 2 74 11
8 10 9 -3 4 -18 -5 -21 16 -5 41 4 6 4 14 0 16 -5 3 -8 24 -7 46 1 44 -4 49
-25 29 -11 -10 -13 -10 -7 0 5 7 1 12 -9 12 -9 0 -13 -5 -10 -11 4 -6 -2 -5
-13 2 -16 10 -23 10 -35 0 -10 -8 -17 -9 -22 -1 -3 5 -11 10 -16 10 -6 0 -8
-4 -5 -8 3 -5 -1 -9 -9 -9 -8 0 -12 4 -9 9 8 13 -10 10 -25 -4 -11 -10 -13
-10 -7 0 5 7 1 12 -9 12 -9 0 -13 -5 -10 -11 4 -6 -2 -5 -13 2 -16 10 -23 10
-35 0 -10 -8 -17 -9 -22 -1 -3 5 -11 10 -16 10 -6 0 -8 -4 -5 -8 3 -5 -1 -9
-9 -9 -8 0 -12 4 -10 7 3 4 -6 8 -20 8 -14 0 -23 -4 -21 -7 3 -4 -5 -8 -17 -8
-17 -2 -19 0 -7 7 13 8 12 10 -2 10 -10 0 -18 -6 -18 -12 0 -9 -4 -8 -10 2 -9
13 -11 13 -20 0 -6 -10 -10 -11 -10 -2 0 6 -9 12 -21 12 -11 0 -18 -4 -15 -8
2 -4 -5 -9 -17 -9 -17 -2 -19 0 -7 7 13 8 12 10 -2 10 -10 0 -18 -6 -18 -12 0
-9 -4 -8 -10 2 -9 13 -11 13 -20 0 -6 -10 -10 -11 -10 -2 0 6 -9 12 -21 12
-11 0 -18 -4 -15 -8 2 -4 -5 -9 -17 -9 -17 -2 -19 0 -7 7 13 8 12 10 -2 10
-10 0 -18 -6 -18 -12 0 -9 -4 -8 -10 2 -9 13 -11 13 -20 0 -6 -10 -10 -11 -10
-2 0 6 -9 12 -21 12 -11 0 -18 -4 -15 -8 2 -4 -5 -9 -17 -9 -17 -2 -19 0 -7 7
13 8 12 10 -2 10 -10 0 -18 -6 -18 -12 0 -9 -4 -8 -10 2 -9 13 -11 13 -20 0
-6 -10 -10 -11 -10 -2 0 6 -9 12 -21 12 -11 0 -18 -4 -15 -8 2 -4 -5 -9 -17
-9 -17 -2 -19 0 -7 7 13 8 12 10 -2 10 -10 0 -18 -6 -18 -12 0 -9 -4 -8 -10 2
-9 13 -11 13 -20 0 -6 -10 -10 -11 -10 -2 0 6 -9 12 -21 12 -11 0 -18 -4 -15
-8 2 -4 -5 -9 -17 -9 -17 -2 -19 0 -7 7 12 8 10 10 -8 10 -14 0 -21 -4 -17
-11 4 -6 -2 -5 -13 2 -16 10 -23 10 -35 0 -10 -8 -17 -9 -22 -1 -3 5 -11 10
-16 10 -6 0 -8 -4 -5 -8 3 -5 -1 -9 -9 -9 -8 0 -12 4 -9 9 8 13 -10 10 -25 -4
-11 -10 -13 -10 -7 0 5 7 1 12 -9 12 -9 0 -13 -5 -10 -11 4 -6 -2 -5 -13 2
-16 10 -23 10 -35 0 -10 -8 -17 -9 -22 -1 -3 5 -11 10 -16 10 -6 0 -8 -4 -5
-8 3 -5 -1 -9 -9 -9 -8 0 -12 4 -9 9 8 13 -10 10 -25 -4 -11 -10 -13 -10 -7 0
4 6 2 12 -3 12 -6 0 -11 -6 -11 -12 0 -9 -4 -8 -10 2 -9 13 -11 13 -20 0 -6
-10 -10 -11 -10 -2 0 6 -9 12 -21 12 -11 0 -18 -4 -15 -8 2 -4 -5 -9 -17 -9
-17 -2 -19 0 -7 7 13 8 12 10 -2 10 -10 0 -18 -6 -18 -12 0 -9 -4 -8 -10 2 -9
13 -11 13 -20 0 -6 -10 -10 -11 -10 -2 0 6 -9 12 -21 12 -11 0 -18 -4 -15 -8
2 -4 -5 -9 -17 -9 -17 -2 -19 0 -7 7 13 8 12 10 -2 10 -10 0 -18 -6 -18 -12 0
-9 -4 -8 -10 2 -9 13 -11 13 -20 0 -6 -10 -10 -11 -10 -2 0 6 -9 12 -20 12
-11 0 -20 -6 -20 -12 0 -9 -4 -8 -10 2 -9 13 -11 13 -20 0 -6 -10 -10 -11 -10
-2 0 6 -9 12 -21 12 -11 0 -18 -4 -15 -8 2 -4 -5 -9 -17 -9 -17 -2 -19 0 -7 7
13 8 13 10 -2 10 -9 0 -19 -6 -21 -12 -4 -10 -6 -10 -6 0 -1 6 -8 12 -17 12
-8 0 -13 -4 -10 -8 2 -4 -6 -8 -19 -8 -13 0 -21 4 -19 8 7 11 -38 10 -56 -2
-8 -5 -11 -10 -6 -10 5 0 1 -9 -10 -21 -13 -15 -14 -20 -4 -17 19 4 22 -50 4
-79 -12 -19 -12 -22 0 -17 10 4 13 0 11 -13 -1 -10 -9 -17 -16 -15 -10 2 -9
-1 2 -10 19 -15 18 -50 0 -72 -12 -14 -12 -16 1 -11 11 4 14 -5 13 -44 0 -27
-7 -56 -14 -65 -12 -14 -12 -16 2 -10 11 4 15 0 12 -13 -1 -10 -9 -17 -16 -15
-10 2 -9 -1 2 -10 19 -15 18 -50 0 -72 -12 -14 -12 -16 1 -11 11 4 14 -5 13
-44 0 -27 -7 -56 -14 -65 -12 -14 -12 -16 1 -11 12 5 15 0 13 -22 l-2 -29 91
1 c50 1 97 4 104 9 6 4 12 3 12 -1 0 -11 211 -10 228 1 6 4 12 3 12 -1 0 -11
211 -10 228 1 6 4 12 3 12 -1 0 -11 291 -10 308 1 7 4 12 3 12 -3 0 -5 16 -8
35 -7 31 3 34 1 33 -20 -1 -13 -8 -26 -14 -28 -7 -3 -10 -14 -7 -27 4 -15 3
-20 -5 -15 -10 6 -17 -6 -9 -18 1 -2 -5 -12 -14 -22 -9 -11 -23 -36 -33 -56
-9 -21 -21 -38 -27 -38 -6 0 -7 -5 -4 -10 3 -6 -1 -13 -9 -16 -9 -3 -13 -10
-10 -15 3 -5 0 -9 -5 -9 -6 0 -21 -10 -33 -22 -19 -19 -19 -21 -2 -14 18 7 18
6 -1 -12 -11 -11 -23 -18 -27 -15 -5 2 -8 -1 -8 -7 0 -6 -7 -18 -15 -26 -8 -9
-15 -12 -15 -7 0 4 -7 -3 -16 -15 -8 -12 -22 -22 -30 -22 -8 0 -12 -4 -9 -10
3 -5 -1 -10 -9 -10 -9 0 -16 -4 -16 -10 0 -5 -12 -10 -27 -10 -21 0 -24 -3
-14 -9 12 -8 9 -11 -12 -16 -15 -4 -25 -10 -23 -14 3 -4 -5 -8 -16 -8 -12 -1
-24 -7 -27 -12 -4 -6 -21 -11 -38 -13 -17 -1 -29 -6 -27 -10 5 -8 -13 -12 -53
-10 -13 1 -22 -2 -22 -6 3 -19 -2 -25 -11 -12 -6 10 -10 11 -10 3 0 -9 -17
-13 -51 -13 -34 0 -48 -4 -43 -11 4 -7 -1 -7 -16 1 -15 8 -20 8 -16 1 5 -8
-17 -11 -73 -11 -54 0 -81 4 -84 13 -4 9 -6 9 -6 0 -1 -15 -67 -18 -76 -3 -3
6 -33 10 -66 10 -40 0 -59 4 -59 13 0 9 -3 8 -9 -2 -7 -11 -9 -11 -13 0 -2 7
-20 14 -39 14 -20 1 -33 6 -32 13 2 6 -4 9 -12 6 -8 -3 -29 1 -46 10 -18 9
-40 16 -50 16 -10 0 -21 5 -25 12 -5 7 -3 8 6 3 8 -5 11 -4 6 3 -3 6 -15 9
-26 7 -12 -2 -20 2 -20 10 0 8 -8 12 -20 10 -13 -2 -20 2 -20 11 0 8 -9 14
-21 14 -11 0 -17 5 -14 10 5 9 -10 15 -18 8 -1 -2 -19 14 -39 34 -19 20 -38
34 -42 31 -3 -4 -6 -1 -6 6 0 7 -16 27 -35 45 -19 19 -35 39 -35 45 0 7 -5 9
-12 5 -8 -5 -9 -2 -5 9 3 10 2 17 -4 17 -6 0 -7 6 -3 13 5 7 0 6 -11 -3 -10
-8 -16 -10 -12 -3 4 6 0 18 -8 26 -8 9 -15 25 -15 37 0 12 -4 18 -10 15 -6 -3
-10 5 -10 19 0 13 -6 26 -12 28 -7 3 -13 13 -13 24 0 10 -4 18 -10 17 -5 -1
-11 15 -13 35 -1 20 -6 38 -11 42 -5 3 -11 21 -13 40 -1 19 -7 38 -12 41 -5 4
-9 27 -10 50 -1 24 -6 51 -11 59 -6 8 -10 47 -11 85 0 39 -4 76 -8 83 -4 7 -4
12 1 12 10 0 9 52 -1 68 -4 7 -4 12 1 12 4 0 8 33 8 74 0 44 -4 74 -10 73 -6
-1 -11 29 -13 68 -2 38 -8 76 -15 84 -9 12 -9 13 1 7 6 -4 12 -2 12 3 0 6 -4
11 -10 11 -5 0 -10 20 -10 44 0 25 -4 48 -10 51 -5 3 -10 12 -10 18 0 7 4 6
10 -3 5 -8 10 -10 10 -4 0 6 -6 17 -14 24 -8 6 -12 19 -9 27 5 12 3 14 -8 8
-12 -8 -12 -6 0 8 9 12 10 17 2 17 -7 0 -9 5 -6 10 3 6 2 10 -3 10 -8 0 -10 6
-14 50 -1 11 -6 20 -10 20 -4 0 -8 8 -8 18 0 10 -6 24 -12 31 -11 11 -10 12 1
6 9 -5 8 0 -3 17 -9 14 -13 28 -9 31 3 4 0 7 -8 7 -8 0 -15 10 -16 22 -1 11
-7 24 -13 28 -7 4 -11 10 -11 14 4 26 -1 46 -9 41 -5 -3 -10 3 -10 14 0 12 -4
21 -10 21 -5 0 -10 11 -10 25 0 15 -5 24 -12 23 -8 -2 -13 7 -12 20 0 13 -4
21 -10 19 -7 -3 -17 6 -23 19 -8 18 -8 23 0 18 7 -3 4 1 -5 9 -10 8 -15 17
-11 20 3 4 -1 7 -10 7 -9 0 -17 7 -17 15 0 8 -5 15 -11 15 -6 0 -9 6 -6 14 6
14 -25 46 -46 46 -8 0 -7 3 3 10 12 7 10 11 -10 18 -14 5 -24 12 -22 16 6 16
1 26 -15 26 -9 0 -14 3 -10 6 3 3 -21 32 -53 64 -32 32 -56 61 -53 64 4 3 0 6
-8 6 -8 0 -21 9 -29 20 -8 11 -20 20 -27 20 -7 0 -13 7 -13 15 0 8 -7 15 -15
15 -8 0 -32 16 -52 35 -20 19 -41 35 -46 35 -4 0 -5 5 -1 12 4 6 3 8 -4 4 -6
-3 -17 1 -25 9 -9 8 -25 15 -36 15 -12 0 -21 6 -21 16 0 8 -4 13 -8 10 -5 -3
-14 3 -22 14 -7 10 -20 16 -29 12 -9 -3 -13 -2 -9 3 8 9 -36 35 -58 35 -8 0
-17 6 -20 14 -3 8 -14 13 -25 11 -11 -2 -17 0 -14 6 4 5 -7 12 -24 15 -17 4
-28 10 -25 15 3 5 2 9 -3 8 -24 -4 -53 2 -48 11 6 9 -21 15 -52 11 -6 -1 -15
4 -19 10 -5 8 -3 9 6 4 8 -5 11 -4 7 3 -4 5 -15 9 -25 7 -9 -1 -28 4 -41 12
-18 12 -22 12 -15 2 6 -11 5 -12 -7 -2 -8 6 -26 13 -39 15 -14 2 -29 6 -35 10
-5 3 -26 8 -45 9 -19 2 -41 11 -48 19 -8 8 -11 9 -7 3 7 -14 -11 -18 -19 -4
-3 4 -22 7 -42 6 -20 -1 -38 3 -40 9 -3 7 -39 12 -92 13 -48 1 -87 2 -87 3 0
2 -247 5 -249 3z"/>
<path d="M1640 7050 c13 -8 13 -10 -2 -10 -9 0 -24 -3 -34 -7 -13 -5 -15 -3
-9 8 7 11 6 12 -6 3 -8 -6 -31 -10 -51 -10 -21 1 -38 -2 -38 -7 0 -5 -8 -3
-17 4 -14 12 -16 12 -11 -2 5 -13 -3 -16 -45 -18 -28 -1 -54 -6 -57 -11 -3 -5
-23 -10 -45 -12 -22 -2 -43 -7 -46 -12 -4 -5 -24 -10 -45 -12 -21 -2 -40 -8
-42 -14 -2 -5 -15 -10 -28 -10 -13 0 -24 -4 -24 -10 0 -5 -9 -10 -20 -10 -11
0 -28 -4 -38 -9 -9 -5 -26 -12 -37 -16 -16 -5 -17 -8 -5 -15 9 -6 1 -8 -23 -6
-26 2 -37 -1 -37 -10 0 -8 -9 -14 -21 -14 -11 0 -17 -4 -14 -10 3 -5 0 -10 -7
-10 -22 0 -68 -24 -68 -35 0 -6 -9 -11 -21 -12 -11 -1 -29 -11 -39 -23 -13
-15 -19 -17 -23 -8 -4 8 -6 7 -6 -4 -1 -10 -7 -17 -13 -15 -7 1 -12 -4 -10
-12 2 -8 -3 -11 -13 -8 -9 4 -15 1 -15 -8 0 -8 -9 -15 -20 -15 -11 0 -20 -4
-20 -10 0 -5 -7 -10 -15 -10 -8 0 -15 -7 -15 -16 0 -8 -4 -12 -10 -9 -5 3 -10
-1 -10 -9 0 -9 -7 -16 -16 -16 -8 0 -12 -4 -9 -10 3 -5 1 -10 -5 -10 -7 0 -24
-13 -40 -30 -15 -16 -31 -26 -35 -22 -3 4 -5 2 -3 -4 2 -7 -9 -23 -24 -37 -16
-14 -28 -28 -28 -31 0 -2 -14 -18 -31 -35 -17 -18 -27 -36 -23 -42 4 -8 3 -9
-4 -5 -7 4 -12 1 -12 -9 0 -9 -4 -13 -10 -10 -5 3 -10 0 -10 -8 0 -8 -7 -18
-16 -21 -8 -3 -12 -10 -9 -16 3 -6 -1 -13 -9 -16 -9 -3 -16 -12 -16 -20 0 -8
-4 -14 -10 -14 -5 0 -10 -10 -10 -22 0 -19 -2 -20 -10 -8 -8 12 -10 9 -10 -12
0 -19 -5 -28 -16 -28 -8 0 -13 -4 -9 -9 3 -5 0 -15 -7 -23 -7 -7 -15 -22 -16
-33 -2 -11 -8 -23 -14 -26 -5 -3 -10 -15 -11 -27 0 -11 -5 -18 -9 -16 -7 5
-12 -18 -9 -38 0 -5 -6 -8 -14 -8 -8 0 -14 -3 -14 -7 1 -5 1 -21 0 -38 -1 -23
-3 -27 -11 -15 -7 11 -10 7 -10 -18 0 -18 -7 -44 -16 -57 -9 -13 -13 -29 -9
-35 3 -5 -2 -10 -11 -10 -16 0 -16 -1 2 -15 13 -11 14 -13 3 -9 -12 4 -16 -1
-15 -18 1 -13 -5 -29 -14 -36 -13 -12 -13 -13 0 -6 12 6 13 4 3 -7 -7 -7 -13
-27 -13 -44 0 -17 -5 -36 -10 -41 -6 -6 -11 -36 -11 -67 -1 -31 -6 -54 -10
-51 -5 3 -9 0 -9 -5 0 -6 6 -11 13 -11 7 0 4 -7 -7 -15 -14 -11 -16 -15 -5
-15 8 0 10 -3 4 -8 -5 -4 -10 -34 -10 -67 1 -33 -4 -63 -10 -67 -6 -5 -6 -8 3
-8 6 0 12 -5 12 -11 0 -5 -4 -8 -8 -5 -5 3 -9 -1 -9 -9 0 -8 5 -11 11 -8 6 4
5 -1 -3 -10 -7 -9 -9 -17 -4 -17 5 0 10 -7 10 -15 0 -8 -4 -12 -8 -9 -4 2 -11
0 -14 -6 -4 -6 -1 -9 6 -8 18 4 20 -51 3 -79 -12 -19 -12 -22 0 -17 10 4 13 0
11 -13 -1 -10 -9 -17 -16 -15 -10 2 -10 -1 1 -10 11 -9 16 -32 17 -73 1 -33 2
-82 2 -110 1 -36 4 -46 11 -35 7 10 10 -5 10 -53 0 -43 4 -66 10 -62 10 6 14
-26 10 -74 -1 -13 3 -27 10 -31 6 -4 12 -23 13 -42 1 -20 5 -34 9 -32 9 6 21
-33 14 -45 -4 -5 1 -16 9 -25 8 -8 16 -26 17 -40 1 -13 6 -22 10 -20 4 3 8 -1
9 -8 2 -31 9 -51 23 -67 9 -10 13 -21 9 -24 -3 -4 -1 -7 5 -7 7 0 12 -9 12
-20 0 -11 5 -20 10 -20 6 0 10 -8 10 -19 0 -10 7 -24 15 -31 9 -7 13 -15 11
-18 -3 -2 0 -10 7 -18 31 -34 37 -44 37 -59 0 -8 4 -15 8 -15 5 0 17 -16 28
-35 10 -19 22 -35 26 -35 5 0 8 -7 8 -16 0 -8 4 -12 10 -9 5 3 10 1 10 -5 0
-6 6 -18 12 -25 30 -34 38 -45 38 -55 0 -6 4 -9 8 -6 5 3 15 -6 22 -19 7 -14
19 -25 27 -25 7 0 13 -7 13 -16 0 -8 4 -12 10 -9 5 3 10 1 10 -5 0 -15 25 -40
40 -40 6 0 8 -4 5 -10 -3 -5 -1 -10 4 -10 15 0 51 -37 44 -44 -6 -5 21 -10 39
-7 5 0 7 -5 5 -12 -1 -6 4 -11 11 -10 6 2 12 -4 12 -12 0 -8 6 -14 13 -12 6 1
11 -4 9 -11 -1 -8 2 -11 7 -8 5 4 16 -1 24 -9 9 -8 20 -15 25 -15 6 0 12 -4
14 -9 2 -5 10 -11 18 -13 8 -2 25 -13 37 -25 12 -13 34 -23 50 -23 22 0 25 -2
13 -10 -10 -7 -11 -10 -2 -11 27 -3 84 -29 93 -43 4 -5 14 -6 23 -3 10 4 16 1
16 -8 0 -10 10 -15 31 -15 17 0 28 -4 24 -10 -5 -8 15 -13 41 -9 4 0 10 -4 13
-10 4 -6 17 -12 29 -14 12 -2 28 -9 34 -15 7 -7 26 -12 43 -12 17 0 37 -6 44
-12 11 -11 12 -10 6 1 -6 10 -2 10 16 -2 13 -8 32 -13 42 -12 9 2 17 0 17 -4
0 -8 9 -10 71 -12 25 -1 43 -7 46 -16 5 -12 7 -12 14 -1 7 10 9 10 9 1 0 -7 7
-13 15 -13 8 0 15 6 15 13 0 8 2 9 8 1 4 -6 31 -12 61 -13 29 0 61 -6 69 -13
12 -10 14 -10 8 0 -4 7 -1 12 9 12 9 0 13 -4 10 -10 -3 -5 -2 -10 4 -10 5 0
12 6 14 13 4 10 6 10 6 0 1 -7 8 -13 16 -13 8 0 15 6 15 13 0 9 3 8 9 -2 6 -9
11 -10 15 -2 4 6 13 11 19 11 7 0 6 -4 -3 -10 -12 -8 -9 -10 13 -10 16 0 26 4
22 10 -3 5 -1 10 4 10 6 0 11 -4 11 -10 0 -5 7 -10 16 -10 8 0 12 5 9 10 -3 6
-1 10 4 10 6 0 11 -5 11 -12 0 -9 3 -9 12 0 7 7 17 12 22 12 6 0 4 -5 -4 -10
-12 -8 -9 -10 13 -10 16 0 26 4 22 10 -3 5 -1 10 4 10 6 0 11 -4 11 -10 0 -5
5 -10 11 -10 5 0 7 5 4 10 -4 6 13 10 42 11 129 2 173 6 186 18 8 6 19 11 23
10 27 -5 64 2 59 11 -9 14 8 12 24 -2 11 -10 13 -10 7 0 -5 8 2 12 23 12 17 0
31 4 31 10 0 5 3 9 8 9 28 -5 72 3 67 11 -3 6 3 11 14 12 12 0 27 1 34 2 6 1
16 7 20 14 4 6 22 12 38 12 18 0 28 4 24 10 -3 6 5 10 19 10 13 0 26 5 28 11
2 5 12 11 21 13 10 1 23 9 28 17 5 8 9 10 9 6 0 -5 15 1 33 12 19 11 37 18 40
14 4 -3 7 -1 7 5 0 7 7 12 16 12 8 0 12 5 9 10 -4 6 -3 9 2 8 16 -4 53 14 48
23 -4 5 3 9 15 9 12 0 18 4 15 10 -3 6 1 10 10 10 9 0 28 11 43 25 15 14 33
25 40 25 7 0 10 5 7 10 -3 5 -1 10 5 10 6 0 23 11 38 25 15 14 33 25 40 25 7
0 10 5 7 10 -3 6 1 10 10 10 9 0 13 5 10 10 -3 6 1 10 10 10 9 0 14 4 11 9 -3
5 4 11 15 14 12 3 19 9 17 14 -5 10 49 63 56 55 4 -3 6 2 6 12 0 9 4 14 10 11
6 -3 7 1 4 9 -4 11 0 16 11 16 9 0 14 4 11 8 -3 5 4 15 15 22 10 8 19 20 19
28 0 7 5 10 12 6 7 -5 9 -2 6 8 -4 8 2 21 13 29 10 7 19 19 19 27 0 7 5 10 10
7 6 -3 10 3 10 14 0 12 9 30 20 41 12 12 18 26 14 32 -4 7 -3 8 4 4 7 -4 12
-1 12 8 0 9 5 16 10 16 6 0 10 12 10 26 0 14 4 23 10 19 6 -4 10 7 10 25 0 18
4 29 10 25 6 -3 10 2 10 12 0 11 5 24 10 29 11 11 21 45 23 76 1 9 5 14 9 12
4 -3 8 11 8 31 0 20 4 34 8 31 9 -5 10 -3 13 51 1 18 6 30 10 27 5 -3 6 2 3
10 -3 9 -2 16 3 16 5 0 9 24 9 53 -1 35 4 56 14 64 12 11 13 14 1 22 -8 5 -9
11 -3 15 7 4 11 116 11 322 0 271 -2 319 -16 332 -13 13 -16 13 -24 1 -6 -10
-9 -10 -9 -1 0 6 -9 12 -20 12 -11 0 -20 -6 -20 -12 0 -9 -4 -8 -10 2 -9 13
-11 13 -20 0 -6 -10 -10 -11 -10 -2 0 6 -9 12 -21 12 -11 0 -18 -4 -15 -8 2
-4 -5 -9 -17 -9 -17 -2 -19 0 -7 7 13 8 12 10 -2 10 -10 0 -18 -6 -18 -12 0
-9 -4 -8 -10 2 -9 13 -11 13 -20 0 -6 -10 -10 -11 -10 -2 0 6 -9 12 -21 12
-11 0 -18 -4 -15 -8 2 -4 -5 -9 -17 -9 -17 -2 -19 0 -7 7 13 8 12 10 -2 10
-10 0 -18 -6 -18 -12 0 -9 -4 -8 -10 2 -9 13 -11 13 -20 0 -6 -10 -10 -11 -10
-2 0 6 -9 12 -20 12 -11 0 -20 -6 -20 -12 0 -9 -4 -8 -10 2 -9 13 -11 13 -20
0 -6 -10 -10 -11 -10 -2 0 6 -9 12 -21 12 -11 0 -18 -4 -15 -8 2 -4 -5 -9 -17
-9 -17 -2 -19 0 -7 7 13 8 12 10 -2 10 -10 0 -18 -6 -18 -12 0 -9 -4 -8 -10 2
-9 13 -11 13 -20 0 -6 -10 -10 -11 -10 -2 0 6 -9 12 -21 12 -11 0 -18 -4 -15
-8 2 -4 -5 -9 -17 -9 -17 -2 -19 0 -7 7 13 8 12 10 -2 10 -10 0 -18 -6 -18
-12 0 -9 -4 -8 -10 2 -9 13 -11 13 -20 0 -6 -10 -10 -11 -10 -2 0 6 -9 12 -20
12 -11 0 -20 -6 -20 -12 0 -9 -4 -8 -10 2 -9 13 -11 13 -20 0 -6 -10 -10 -11
-10 -2 0 6 -9 12 -21 12 -11 0 -18 -4 -15 -8 2 -4 -5 -9 -17 -9 -17 -2 -19 0
-7 7 13 8 12 10 -2 10 -10 0 -18 -6 -18 -12 0 -9 -4 -8 -10 2 -9 13 -11 13
-20 0 -6 -10 -10 -11 -10 -2 0 6 -9 12 -21 12 -11 0 -18 -4 -15 -8 2 -4 -5 -9
-17 -9 -17 -2 -19 0 -7 7 13 8 12 10 -2 10 -10 0 -18 -6 -18 -12 0 -9 -4 -8
-10 2 -9 13 -11 13 -20 0 -6 -10 -10 -11 -10 -2 0 6 -12 12 -26 12 -15 0 -23
-4 -19 -11 4 -6 -2 -5 -13 2 -16 10 -23 10 -35 0 -10 -8 -17 -9 -22 -1 -3 5
-11 10 -16 10 -6 0 -8 -4 -5 -8 3 -5 -1 -9 -9 -9 -8 0 -12 4 -9 9 8 13 -10 10
-25 -4 -11 -10 -13 -10 -7 0 5 7 1 12 -9 12 -9 0 -13 -5 -10 -11 4 -6 -2 -5
-13 2 -16 10 -23 10 -35 0 -10 -8 -17 -9 -22 -1 -3 5 -11 10 -16 10 -6 0 -8
-4 -5 -8 3 -5 -1 -9 -9 -9 -8 0 -12 4 -10 7 3 4 -6 8 -20 8 -14 0 -23 -4 -21
-7 3 -4 -5 -8 -17 -8 -17 -2 -19 0 -7 7 13 8 12 10 -2 10 -10 0 -18 -6 -18
-12 0 -9 -4 -8 -10 2 -9 13 -11 13 -20 0 -6 -10 -10 -11 -10 -2 0 6 -9 12 -21
12 -11 0 -18 -4 -15 -8 2 -4 -5 -9 -17 -9 -17 -2 -19 0 -7 7 13 8 12 10 -2 10
-10 0 -18 -6 -18 -12 0 -9 -4 -8 -10 2 -9 13 -11 13 -20 0 -6 -10 -10 -11 -10
-2 0 6 -9 12 -21 12 -11 0 -18 -4 -15 -8 2 -4 -5 -9 -17 -9 -17 -2 -19 0 -7 7
13 8 12 10 -2 10 -10 0 -18 -6 -18 -12 0 -9 -4 -8 -10 2 -9 13 -11 13 -20 0
-6 -10 -10 -11 -10 -2 0 6 -9 12 -21 12 -11 0 -18 -4 -15 -8 2 -4 -5 -9 -17
-9 -17 -2 -19 0 -7 7 13 8 12 10 -2 10 -10 0 -18 -6 -18 -12 0 -9 -4 -8 -10 2
-9 13 -11 13 -20 0 -6 -10 -10 -11 -10 -2 0 6 -9 12 -21 12 -11 0 -18 -4 -15
-8 2 -4 -6 -8 -19 -8 -13 0 -21 4 -19 8 3 4 0 8 -5 8 -6 0 -11 -5 -11 -11 0
-5 -4 -7 -10 -4 -7 4 -10 -109 -10 -332 l0 -338 158 0 c86 0 163 4 170 8 6 5
12 4 12 0 0 -11 291 -10 308 1 7 4 12 3 12 -1 0 -11 211 -10 228 1 6 4 12 3
12 -2 0 -5 41 -8 90 -7 65 1 94 -2 101 -12 9 -10 8 -13 -3 -13 -8 0 -15 -12
-16 -27 -1 -15 -5 -29 -10 -32 -14 -11 -32 -51 -32 -71 0 -13 -5 -18 -14 -14
-10 4 -14 -1 -12 -19 2 -18 -1 -24 -10 -20 -10 4 -14 -4 -14 -23 0 -23 -2 -26
-10 -14 -6 10 -10 11 -10 3 0 -7 -1 -16 -2 -20 -3 -12 -31 -39 -35 -33 -2 3
-11 -10 -20 -27 -8 -18 -19 -31 -23 -28 -4 3 -11 -2 -14 -11 -3 -8 -10 -12
-16 -9 -6 3 -7 -1 -4 -10 5 -11 2 -14 -12 -9 -11 4 -16 4 -12 0 7 -8 -26 -46
-41 -46 -5 0 -14 -7 -21 -15 -7 -8 -16 -13 -20 -10 -4 3 -11 -2 -14 -11 -3 -9
-13 -14 -21 -10 -8 3 -17 1 -20 -4 -3 -4 1 -11 7 -13 7 -3 -2 -6 -20 -6 -19
-1 -31 -5 -27 -11 5 -9 -41 -16 -69 -11 -5 1 -4 -4 2 -12 9 -11 5 -13 -23 -12
-19 1 -35 -2 -35 -7 0 -5 -4 -6 -10 -3 -5 3 -10 2 -10 -3 0 -5 -6 -9 -12 -9
-7 -1 -34 -2 -60 -4 -31 -1 -45 -6 -41 -13 4 -6 -2 -4 -12 4 -11 9 -16 10 -11
3 6 -10 -21 -13 -121 -13 -86 0 -123 3 -113 10 13 8 13 10 -2 10 -9 0 -19 -6
-21 -12 -4 -10 -6 -10 -6 0 -1 8 -18 12 -50 12 -27 0 -53 6 -59 13 -6 7 -29
12 -51 11 -22 0 -39 3 -38 9 1 5 -11 11 -27 13 -16 1 -32 7 -35 11 -6 8 -24
14 -53 16 -9 1 -16 6 -15 11 2 10 -4 12 -40 15 -16 1 -16 3 -3 11 12 8 11 10
-7 10 -13 0 -23 5 -23 10 0 6 -9 10 -21 10 -11 0 -17 5 -14 10 3 6 -2 10 -13
10 -10 0 -25 11 -32 25 -10 18 -16 22 -22 13 -6 -10 -8 -10 -9 2 -1 8 -1 18 0
23 0 4 -2 6 -6 6 -5 -1 -17 -1 -28 0 -17 1 -18 3 -5 11 13 9 13 10 0 11 -8 1
-19 1 -24 0 -5 -1 -3 6 5 15 9 12 9 15 2 10 -8 -4 -13 -1 -13 8 0 9 -7 16 -16
16 -8 0 -12 5 -9 10 3 6 -1 10 -10 10 -9 0 -14 4 -11 8 2 4 1 14 -5 22 -7 13
-9 13 -9 0 0 -8 -7 -2 -15 14 -8 15 -15 35 -15 43 0 10 -6 13 -16 9 -13 -5
-14 -4 -6 7 9 10 7 17 -8 27 -16 11 -17 17 -7 29 9 12 9 13 0 7 -9 -5 -13 0
-13 14 0 12 -5 18 -10 15 -6 -3 -10 4 -10 17 0 13 -6 30 -12 37 -11 11 -10 12
1 6 10 -6 10 -2 -2 16 -8 13 -13 35 -12 49 2 14 1 19 -1 13 -12 -28 -21 -10
-23 44 -1 32 -6 60 -11 63 -5 3 -10 40 -12 82 -1 42 -6 74 -11 71 -5 -3 -3 5
5 17 10 18 10 24 1 27 -7 3 -13 9 -13 14 0 6 5 7 10 4 6 -3 10 -2 10 4 0 5 -6
12 -12 14 -10 4 -10 6 0 6 6 1 12 6 12 12 0 5 -6 7 -12 3 -9 -5 -8 -2 1 9 11
14 11 23 3 42 -6 13 -8 27 -3 29 4 3 9 36 10 73 1 39 7 71 14 75 9 6 9 8 0 8
-7 0 -13 5 -13 11 0 5 5 7 10 4 9 -5 13 23 13 88 0 12 3 14 12 7 9 -7 11 -1
10 25 0 25 4 35 15 35 13 0 13 1 0 10 -10 6 -11 10 -2 10 6 0 12 11 12 25 0
14 5 25 10 25 6 0 10 9 10 19 0 11 5 21 10 23 6 2 12 13 13 26 0 12 7 22 14
22 7 0 13 12 13 28 0 21 2 24 10 12 8 -12 10 -11 10 6 0 11 11 30 25 42 14 12
25 27 25 33 0 5 5 7 12 3 6 -4 8 -3 5 3 -8 12 25 53 42 53 6 0 10 4 8 9 -1 5
1 9 6 10 13 2 44 36 40 44 -3 4 -1 7 4 6 20 -3 34 2 28 11 -4 6 -3 10 2 9 22
-4 33 3 34 19 0 11 2 13 6 4 4 -10 9 -8 20 7 8 12 25 21 39 21 14 0 22 4 19
10 -3 6 1 10 9 10 9 0 16 6 16 13 0 8 3 7 10 -3 8 -12 10 -12 15 2 4 10 15 15
26 13 10 -2 26 3 34 11 8 9 19 13 23 10 5 -3 21 1 36 9 14 8 24 11 22 6 -3 -4
1 -8 9 -8 8 0 12 4 9 9 -3 4 13 9 35 9 50 2 53 2 68 12 6 4 14 3 18 -3 3 -5
11 -10 16 -10 6 0 7 5 3 12 -4 7 -3 8 4 4 21 -13 53 -16 46 -4 -5 7 -2 9 8 5
9 -3 20 -1 26 5 6 6 12 6 17 -3 6 -8 4 -10 -6 -4 -11 6 -12 5 -1 -6 9 -10 15
-10 24 -1 7 7 17 12 22 12 6 0 4 -5 -4 -10 -13 -8 -13 -10 2 -10 9 0 20 5 23
10 3 6 12 10 18 10 7 0 6 -4 -3 -10 -11 -7 5 -10 51 -10 36 0 70 -5 76 -11 5
-5 25 -11 42 -11 17 -1 34 -5 37 -10 3 -4 10 -6 15 -3 5 4 9 2 9 -4 0 -5 9 -8
19 -6 13 2 18 -1 15 -9 -3 -7 5 -12 18 -13 13 -1 24 -7 26 -13 2 -5 12 -10 23
-10 10 0 19 -4 19 -10 0 -5 9 -10 21 -10 11 0 17 -4 14 -10 -3 -5 -1 -10 4
-10 6 0 27 -16 47 -35 19 -19 40 -35 45 -35 5 0 9 -5 9 -11 0 -6 14 -24 30
-39 20 -19 26 -30 18 -33 -8 -3 -6 -6 5 -6 10 -1 16 -5 13 -10 -3 -5 1 -12 10
-15 8 -3 12 -2 9 4 -3 6 2 10 12 10 10 0 14 4 8 8 -13 9 -18 35 -5 27 6 -4 10
5 10 20 0 18 4 24 13 19 7 -5 7 -2 -2 10 -12 15 -12 17 0 14 9 -2 13 4 11 20
-2 15 2 22 12 22 9 0 15 3 15 8 -4 24 2 52 11 47 6 -4 10 7 10 24 0 17 5 31
10 31 6 0 10 9 10 20 0 10 6 23 14 27 14 8 16 12 16 34 0 5 5 7 10 4 6 -3 10
3 10 14 0 12 4 21 8 21 5 0 14 16 22 35 8 19 18 35 22 35 5 0 6 5 3 10 -3 6
-1 10 4 10 6 0 11 7 11 16 0 8 5 12 10 9 6 -3 10 1 10 9 0 9 5 16 10 16 6 0
10 9 10 20 0 11 5 20 10 20 6 0 10 7 10 15 0 8 7 15 15 15 14 0 20 12 16 33
-1 5 3 6 9 2 5 -3 10 3 10 14 0 14 5 19 15 15 11 -5 13 -2 9 10 -3 9 -1 16 6
16 15 0 41 26 33 34 -4 3 1 6 11 6 10 0 14 5 11 11 -4 6 2 13 13 16 14 3 19
10 15 21 -5 11 -3 13 6 7 10 -6 11 -3 2 12 -6 11 -7 24 -3 28 4 5 2 5 -4 2 -6
-4 -20 4 -30 18 -13 17 -20 21 -26 12 -6 -9 -8 -9 -8 1 0 6 -7 12 -16 12 -8 0
-12 5 -9 10 3 6 -1 10 -9 10 -9 0 -16 6 -16 13 0 8 -4 7 -10 -3 -9 -13 -10
-13 -10 0 0 8 -15 21 -32 29 -18 8 -35 18 -38 22 -3 4 -14 9 -25 11 -11 1 -28
12 -37 23 -11 13 -17 15 -18 7 0 -7 -5 -10 -10 -7 -6 4 -7 11 -4 17 5 7 1 9
-9 5 -9 -3 -23 0 -31 8 -8 8 -26 15 -40 15 -14 0 -26 5 -26 10 0 6 -9 10 -20
10 -11 0 -20 6 -20 13 0 9 -3 8 -9 -2 -6 -10 -10 -10 -13 -1 -2 6 -16 13 -31
13 -15 1 -27 6 -27 10 0 5 -4 5 -10 2 -5 -3 -10 -1 -10 5 0 6 -6 10 -12 9 -34
-4 -69 2 -63 11 4 6 -12 11 -39 12 -69 2 -70 2 -79 16 -7 10 -12 10 -23 1 -8
-6 -14 -7 -14 -2 0 5 -29 9 -64 8 -45 0 -62 3 -56 10 6 7 1 11 -15 11 -13 0
-21 -4 -19 -8 3 -4 0 -8 -5 -8 -6 0 -11 6 -11 13 0 8 -4 7 -10 -3 -5 -8 -10
-10 -10 -4 0 14 -327 16 -354 2 -10 -6 -16 -6 -13 -1 3 5 -4 10 -16 10 -17 2
-19 0 -7 -7z m590 -3604 c0 -2 -7 -7 -16 -10 -8 -3 -12 -2 -9 4 6 10 25 14 25
6z"/>
<path d="M6992 7049 c2 -8 -17 -13 -61 -15 -35 -1 -67 -6 -70 -11 -6 -9 -8 -9
-73 -12 -34 -2 -39 -4 -23 -11 17 -7 14 -9 -15 -10 -19 -1 -46 -2 -60 -1 -20
2 -22 0 -10 -8 16 -11 16 -11 -47 -14 -10 -1 -23 -8 -29 -16 -6 -8 -15 -11
-21 -8 -6 4 -19 0 -29 -8 -10 -8 -29 -15 -41 -15 -13 0 -23 -4 -23 -9 0 -5
-12 -11 -27 -13 -16 -2 -27 -8 -26 -15 2 -7 -3 -10 -11 -7 -8 3 -17 0 -21 -5
-3 -6 -11 -9 -16 -6 -5 4 -9 1 -9 -4 0 -6 -8 -11 -18 -11 -10 0 -28 -9 -40
-20 -12 -11 -24 -19 -26 -18 -3 2 -15 -5 -26 -14 -11 -10 -27 -18 -35 -18 -8
0 -15 -4 -15 -10 0 -5 -7 -10 -15 -10 -8 0 -15 -4 -15 -10 0 -5 -9 -10 -20
-10 -11 0 -20 -5 -20 -11 0 -5 5 -7 10 -4 6 3 10 4 10 0 0 -7 -52 -29 -62 -27
-5 1 -8 -5 -8 -13 0 -13 -10 -19 -30 -17 -17 2 -5 -39 16 -53 14 -9 22 -20 19
-25 -4 -6 1 -10 9 -10 9 0 16 -7 16 -15 0 -8 5 -15 10 -15 6 0 10 -7 10 -16 0
-8 5 -12 10 -9 6 3 10 -1 10 -9 0 -9 3 -16 8 -16 9 0 46 -62 44 -73 -2 -5 2
-6 7 -3 5 4 15 -7 23 -24 7 -16 19 -30 26 -30 7 0 11 -4 8 -9 -8 -13 4 -42 15
-35 5 3 9 -7 9 -21 0 -15 4 -24 10 -20 6 4 10 -6 10 -22 0 -22 2 -25 10 -13 8
13 10 12 11 -5 1 -11 1 -23 0 -27 0 -5 7 -8 17 -9 14 0 14 -2 -3 -9 -13 -6
-15 -9 -5 -9 8 -1 21 -10 28 -22 11 -17 11 -20 0 -14 -10 6 -11 5 0 -6 6 -7
12 -21 12 -30 0 -9 6 -19 14 -22 9 -4 12 -14 9 -26 -4 -14 -1 -21 10 -21 9 0
14 -9 13 -22 -1 -15 4 -22 13 -20 12 3 12 1 0 -14 -9 -12 -9 -15 -1 -10 9 5
12 -3 12 -28 0 -20 4 -36 9 -36 6 0 11 -14 13 -32 2 -17 9 -34 17 -36 9 -3 11
0 6 8 -6 10 -4 12 8 7 11 -4 17 -1 17 8 0 8 5 15 10 15 6 0 10 7 10 16 0 8 5
12 10 9 6 -4 10 6 11 22 0 15 3 23 6 16 3 -10 7 -10 18 0 7 7 11 15 8 20 -2 4
3 7 11 7 17 0 39 34 28 44 -3 4 1 4 10 1 9 -4 18 0 21 9 4 9 13 16 22 16 8 0
15 6 15 14 0 10 7 13 20 11 11 -2 18 0 15 5 -3 5 4 11 15 15 11 3 20 11 20 16
0 5 12 9 26 9 14 0 23 4 19 10 -4 6 5 10 19 10 18 0 26 5 26 18 0 14 2 15 10
2 7 -11 10 -11 10 -2 0 7 6 12 13 11 24 -3 38 1 33 10 -5 8 14 11 67 12 9 0
15 3 13 7 -3 4 3 8 12 9 9 0 40 2 67 3 28 2 58 7 69 12 13 7 16 7 12 -1 -4 -6
0 -11 9 -11 10 0 13 5 9 13 -5 8 -2 8 9 -2 9 -7 17 -9 17 -3 0 5 9 12 20 15
11 3 20 1 20 -5 0 -5 5 -6 10 -3 6 3 10 2 10 -2 0 -5 9 -9 20 -10 11 -1 18 2
15 7 -3 5 0 12 6 16 8 4 9 3 5 -4 -9 -15 -12 -14 127 -21 12 -1 16 -5 11 -13
-5 -8 0 -7 11 2 11 9 16 10 11 3 -5 -9 1 -13 18 -13 36 0 39 -1 60 -15 10 -8
24 -11 32 -8 8 3 17 -2 20 -11 3 -9 17 -16 31 -16 13 0 21 -4 18 -10 -3 -5 3
-10 14 -10 12 0 21 -4 21 -10 0 -5 9 -10 20 -10 11 0 20 -7 20 -15 0 -8 6 -14
13 -12 6 1 11 -4 10 -10 -2 -7 3 -12 10 -10 6 1 11 -4 9 -12 -3 -12 -1 -12 14
0 10 8 15 9 11 2 -5 -7 2 -19 18 -29 13 -9 22 -20 19 -25 -3 -5 5 -9 18 -10
13 0 17 -3 11 -6 -10 -3 -10 -8 1 -19 8 -8 19 -14 25 -14 6 0 7 -7 4 -17 -4
-11 -3 -14 5 -9 7 4 12 2 12 -4 0 -6 7 -18 15 -27 8 -8 13 -19 9 -24 -3 -5 0
-8 8 -7 7 2 12 -5 12 -14 -1 -10 4 -18 12 -18 8 0 14 -9 14 -20 0 -11 6 -20
14 -20 9 0 12 -7 9 -18 -2 -10 4 -26 15 -36 19 -16 52 -17 479 -16 252 1 463
2 470 2 8 1 9 7 2 19 -5 10 -10 29 -11 43 -1 13 -6 22 -10 20 -4 -3 -8 9 -8
26 0 22 -4 29 -12 24 -8 -5 -8 -2 1 10 12 15 12 17 0 14 -8 -2 -13 3 -11 11 1
7 -4 24 -13 37 -8 13 -15 38 -15 56 0 25 -3 29 -10 18 -8 -12 -10 -9 -10 13 0
15 -6 27 -12 27 -9 0 -8 4 2 10 10 6 11 10 3 10 -7 0 -13 11 -13 25 0 15 -6
25 -15 25 -9 0 -12 6 -8 15 3 9 -3 23 -13 31 -11 9 -14 13 -7 10 8 -5 8 0 0
18 -7 13 -16 22 -21 19 -5 -4 -6 -2 -3 3 7 12 -22 76 -40 87 -7 4 -13 17 -13
27 0 11 -4 20 -10 20 -5 0 -10 7 -10 15 0 8 -4 15 -10 15 -5 0 -10 7 -10 15 0
9 -7 18 -15 21 -8 4 -12 10 -9 15 3 5 -2 9 -11 9 -9 0 -14 4 -10 9 3 5 -2 16
-10 24 -8 9 -15 21 -15 28 0 7 -2 10 -5 7 -6 -5 -65 48 -65 58 0 10 -28 34
-39 34 -6 0 -8 7 -5 15 5 11 2 13 -10 9 -11 -4 -16 -2 -14 7 2 8 -2 13 -8 12
-6 -1 -17 9 -24 22 -7 14 -19 25 -27 25 -7 0 -13 5 -13 11 0 5 -4 7 -10 4 -5
-3 -10 1 -10 10 0 9 -4 13 -10 10 -5 -3 -10 -1 -10 5 0 6 -4 8 -10 5 -5 -3
-10 1 -10 10 0 9 -5 13 -10 10 -6 -3 -13 1 -16 9 -3 9 -13 16 -21 16 -8 0 -11
5 -8 10 4 6 3 10 -2 9 -25 -4 -43 3 -43 17 0 10 -5 14 -15 10 -9 -3 -18 1 -21
9 -4 8 -18 15 -33 15 -20 0 -23 2 -11 10 12 8 9 10 -13 10 -15 0 -30 7 -33 15
-4 8 -10 13 -14 10 -5 -3 -16 -2 -25 1 -13 5 -14 8 -3 15 9 6 2 9 -19 9 -18 0
-33 4 -33 8 0 4 -10 8 -22 9 -11 1 -25 7 -29 14 -4 7 -21 12 -38 11 -19 0 -31
4 -31 12 0 7 -10 13 -22 13 -13 0 -36 5 -51 11 -15 7 -41 13 -57 14 -17 1 -30
5 -30 8 0 4 -6 7 -12 8 -7 0 -30 2 -50 3 -24 1 -35 6 -31 13 4 6 -1 5 -10 -3
-10 -8 -20 -11 -24 -7 -3 3 -1 6 6 6 7 0 9 5 6 10 -4 7 -13 7 -26 0 -10 -6
-19 -7 -19 -3 0 5 -24 8 -54 8 -30 0 -52 3 -50 7 2 4 0 9 -6 13 -5 3 -10 1
-10 -6 0 -8 -5 -7 -17 2 -11 10 -14 10 -9 2 4 -7 2 -13 -3 -13 -6 0 -11 4 -11
9 0 10 -351 9 -367 -2 -8 -5 -13 -4 -13 2 0 14 -43 7 -48 -7 -2 -7 -8 -12 -13
-12 -6 0 -8 4 -4 9 3 5 1 13 -5 16 -6 4 -9 1 -8 -6z m68 -5 c0 -8 -19 -13 -24
-6 -3 5 1 9 9 9 8 0 15 -2 15 -3z m-163 -30 c-3 -3 -12 -4 -19 -1 -8 3 -5 6 6
6 11 1 17 -2 13 -5z"/>
<path d="M8971 4724 c0 -11 3 -14 6 -6 3 7 2 16 -1 19 -3 4 -6 -2 -5 -13z"/>
<path d="M5260 4595 c-6 -8 -9 -19 -5 -24 3 -7 0 -8 -9 -5 -10 4 -16 1 -16 -8
0 -7 -9 -20 -20 -28 -11 -8 -20 -20 -20 -28 0 -7 -4 -10 -10 -7 -5 3 -10 -1
-10 -10 0 -12 -5 -15 -16 -11 -12 4 -15 2 -10 -9 3 -9 0 -15 -10 -15 -8 0 -12
-4 -9 -10 3 -5 -1 -10 -9 -10 -9 0 -16 -7 -16 -15 0 -9 -6 -12 -15 -8 -9 3
-15 2 -13 -3 2 -5 -1 -10 -6 -11 -5 0 -13 -8 -18 -17 -5 -9 -14 -16 -20 -16
-7 0 -23 -10 -36 -22 -14 -13 -22 -16 -18 -8 4 8 0 6 -8 -4 -9 -11 -16 -16
-16 -12 0 5 -11 1 -25 -8 -13 -9 -31 -16 -40 -16 -8 0 -15 -4 -15 -10 0 -5
-13 -10 -30 -10 -17 0 -33 -7 -39 -17 -6 -10 -11 -12 -11 -6 0 9 -7 10 -22 4
-13 -4 -33 -7 -45 -6 -15 1 -23 -4 -23 -14 0 -14 -2 -14 -10 -1 -9 13 -10 13
-10 0 0 -13 -1 -13 -10 0 -7 11 -10 11 -10 2 0 -10 -34 -12 -152 -11 -127 1
-155 5 -166 18 -12 14 -13 14 -8 -4 5 -17 4 -18 -6 -5 -8 10 -26 15 -45 14
-20 -1 -34 4 -38 13 -3 10 -13 13 -26 10 -23 -6 -51 1 -45 12 3 4 -3 7 -12 7
-29 1 -46 8 -60 24 -8 8 -11 9 -7 3 4 -8 1 -11 -9 -7 -8 3 -17 12 -20 20 -3 8
-15 14 -26 14 -11 0 -20 5 -20 10 0 6 -7 10 -16 10 -9 0 -12 5 -8 12 4 7 3 8
-4 4 -6 -4 -19 2 -29 13 -9 11 -20 18 -25 15 -4 -3 -8 2 -8 11 0 9 -4 13 -10
10 -5 -3 -10 1 -10 9 0 8 -9 17 -19 21 -11 3 -22 13 -25 21 -3 9 -11 12 -17 8
-8 -4 -9 -3 -5 4 4 7 2 12 -5 12 -7 0 -9 3 -6 7 4 3 -4 14 -19 23 -14 10 -25
20 -25 24 3 18 0 20 -9 6 -5 -8 -10 -27 -10 -42 0 -16 -4 -28 -10 -28 -5 0
-10 -10 -10 -23 0 -13 -6 -29 -13 -36 -10 -11 -9 -12 3 -6 13 8 13 6 2 -8 -8
-9 -15 -28 -17 -44 -1 -15 -8 -29 -14 -31 -6 -2 -11 -10 -11 -17 0 -7 -6 -16
-12 -18 -10 -4 -10 -6 0 -6 6 -1 12 -6 12 -12 0 -5 -4 -7 -10 -4 -6 4 -10 -5
-10 -20 0 -16 -4 -24 -11 -20 -6 4 -10 1 -8 -6 3 -27 -1 -40 -11 -34 -6 4 -13
-7 -16 -24 -4 -17 -10 -31 -15 -31 -5 0 -9 -7 -9 -15 0 -9 -9 -25 -20 -37 -11
-12 -20 -30 -20 -40 0 -10 -7 -18 -15 -18 -8 0 -14 -3 -14 -7 1 -5 1 -17 0
-28 -1 -17 -3 -18 -11 -5 -8 13 -10 12 -10 -3 0 -11 -10 -28 -22 -39 -13 -11
-16 -16 -8 -12 18 9 -9 -26 -55 -70 -16 -16 -30 -34 -30 -40 0 -6 -9 -15 -20
-21 -22 -11 -29 -52 -9 -52 7 0 10 5 7 11 -4 6 1 5 10 -3 9 -7 14 -18 10 -24
-4 -6 0 -8 10 -4 11 4 17 1 17 -8 0 -8 9 -15 21 -15 11 0 17 -4 14 -10 -3 -5
1 -10 10 -10 9 0 26 -10 38 -22 25 -25 30 -28 50 -28 7 0 23 -9 35 -20 12 -11
31 -22 44 -24 13 -2 22 -8 21 -13 -1 -5 8 -10 20 -10 12 -1 23 -7 25 -13 2 -5
7 -8 12 -5 5 3 16 -2 25 -11 9 -9 29 -17 45 -18 15 0 26 -4 24 -8 -5 -8 -3 -9
36 -13 13 -1 26 -8 28 -14 2 -6 14 -11 27 -11 13 0 26 -4 29 -8 3 -5 20 -10
38 -11 18 -2 40 -3 49 -4 10 -1 15 -7 11 -15 -4 -12 -1 -12 16 -3 14 7 22 8
22 2 0 -6 13 -8 30 -6 16 2 33 -2 37 -8 9 -13 22 -15 95 -19 29 -1 44 -6 40
-13 -3 -5 3 -3 13 5 10 8 16 10 12 3 -6 -9 43 -12 208 -12 167 0 214 2 209 12
-5 9 -3 9 7 0 7 -7 17 -13 22 -13 4 0 5 6 1 13 -5 7 0 6 11 -3 15 -12 17 -12
10 -1 -6 11 -3 13 13 9 12 -4 22 -3 22 0 0 4 21 7 48 6 26 0 50 4 53 9 4 5 25
11 48 13 24 2 51 9 61 14 10 6 30 10 44 10 14 0 26 5 26 10 0 6 16 10 35 10
19 0 35 5 35 11 0 5 5 7 10 4 6 -3 10 -2 10 4 0 5 12 8 26 5 14 -3 23 -1 20 5
-7 10 16 21 45 21 11 0 17 5 14 10 -4 6 7 10 25 10 18 0 29 4 25 10 -4 6 5 10
19 10 18 0 26 5 26 17 0 9 3 14 6 10 4 -3 19 0 35 9 16 8 31 14 34 14 3 0 17
11 32 24 14 13 32 22 39 19 8 -3 14 2 14 11 0 9 8 16 20 16 11 0 20 5 20 10 0
6 5 10 11 10 7 0 23 12 37 28 13 15 21 21 17 14 -6 -11 -3 -11 13 -1 12 7 18
17 16 21 -3 4 2 8 10 8 9 0 16 7 16 16 0 8 5 12 10 9 6 -3 10 -1 10 4 0 6 -4
11 -10 11 -5 0 -10 5 -10 11 0 6 -14 24 -31 40 -17 16 -27 29 -23 29 5 0 -2 7
-14 16 -12 8 -22 22 -22 30 0 8 -4 14 -10 14 -5 0 -10 7 -10 15 0 9 -7 18 -15
21 -8 4 -15 12 -15 20 0 8 -4 14 -10 14 -5 0 -10 7 -10 16 0 8 -4 12 -10 9 -6
-4 -10 5 -10 19 0 18 -5 26 -17 26 -15 0 -16 2 -3 10 10 6 11 10 3 10 -7 0
-13 8 -13 18 0 14 -2 15 -10 2 -8 -12 -10 -10 -11 10 -1 14 -1 29 0 33 1 5 -3
6 -9 2 -5 -3 -10 3 -10 14 0 12 -6 20 -12 19 -8 -2 -12 6 -10 20 2 13 -3 25
-13 28 -10 4 -13 13 -9 27 5 16 3 19 -10 14 -9 -4 -15 -3 -15 1 4 27 -3 62
-11 57 -5 -3 -11 2 -11 12 -2 31 -4 37 -15 58 -6 11 -10 28 -9 38 2 9 -1 15
-6 11 -5 -3 -10 -2 -10 3 -8 48 -10 60 -11 70 -1 7 -8 15 -15 17 -8 3 -11 10
-8 16 9 15 -1 12 -15 -5z"/>
<path d="M409 2981 c-3 -7 -22 -14 -44 -16 -22 -2 -41 -8 -43 -14 -2 -6 -12
-11 -23 -11 -20 0 -54 -16 -77 -38 -7 -7 -19 -9 -25 -5 -7 3 -9 3 -5 -2 4 -4
-6 -18 -22 -30 -16 -12 -27 -25 -23 -28 3 -4 -5 -7 -18 -7 -19 0 -21 -2 -9
-10 11 -7 11 -10 2 -10 -7 0 -11 -4 -8 -9 3 -5 -1 -11 -9 -15 -8 -3 -15 -13
-15 -21 0 -9 -5 -13 -10 -10 -6 4 -10 -5 -10 -19 0 -14 -5 -26 -11 -26 -5 0
-7 -4 -4 -10 3 -5 2 -10 -3 -10 -5 0 -8 -12 -6 -26 1 -16 -2 -24 -9 -21 -8 3
-13 -11 -14 -42 -2 -54 -5 -71 -17 -90 -6 -9 -5 -12 2 -7 6 3 13 2 16 -3 4 -5
2 -12 -3 -16 -5 -3 -8 -15 -5 -28 2 -12 5 -46 5 -74 1 -29 6 -53 11 -53 5 0 7
-4 3 -9 -3 -5 -1 -12 5 -16 5 -3 10 -17 10 -31 0 -16 4 -23 11 -18 8 5 10 -1
7 -20 -4 -20 -2 -26 8 -22 9 3 14 -2 14 -14 0 -11 5 -20 10 -20 6 0 10 -9 10
-20 0 -11 5 -20 10 -20 14 0 60 -46 60 -59 0 -6 7 -8 15 -5 10 4 15 0 15 -11
0 -9 4 -14 9 -10 5 3 16 -1 24 -9 8 -8 17 -12 21 -9 3 4 6 0 6 -7 0 -7 3 -11
6 -7 4 3 19 0 35 -8 15 -8 39 -15 53 -15 14 0 27 -4 30 -9 8 -13 250 -11 258
2 4 7 11 7 22 -3 14 -11 16 -10 10 4 -4 9 -3 16 2 15 5 -1 23 -1 39 0 23 1 27
3 15 11 -12 8 -9 10 13 10 17 0 26 4 22 11 -4 6 -1 10 6 8 28 -3 39 1 39 17 0
8 4 13 9 10 5 -3 12 1 15 10 3 8 10 12 16 9 5 -3 10 -1 10 5 0 15 26 41 34 33
3 -4 6 0 6 7 0 7 11 23 26 36 14 13 22 24 18 24 -4 0 0 8 9 18 16 17 21 110
18 313 l-1 45 -40 1 c-24 0 -40 -4 -40 -11 0 -7 -3 -7 -8 -1 -11 15 -65 16
-74 2 -4 -6 -8 -7 -8 -2 0 15 -70 17 -70 2 0 -8 -3 -8 -8 -2 -11 15 -65 16
-74 2 -4 -6 -8 -7 -8 -2 0 15 -113 17 -122 2 -6 -9 -8 -9 -8 1 0 17 -11 15
-39 -8 -22 -19 -23 -26 -22 -122 1 -56 4 -104 6 -107 3 -2 48 -4 100 -5 70 0
95 -4 95 -13 0 -7 -7 -13 -16 -13 -8 0 -13 -4 -10 -9 3 -5 -37 -9 -90 -10 -65
-1 -94 1 -89 8 5 10 -14 16 -38 12 -4 0 -6 5 -5 11 2 7 -3 12 -9 10 -7 -1 -13
5 -13 13 0 8 -6 15 -12 15 -9 0 -8 4 2 10 13 9 13 10 0 10 -12 0 -15 11 -15
45 0 26 -5 45 -11 45 -6 0 -11 14 -11 30 0 17 3 26 7 20 5 -8 9 -7 13 4 4 9 2
16 -4 16 -6 0 -7 6 -2 13 4 6 9 21 10 31 2 10 12 27 23 36 11 10 20 22 20 29
0 6 7 11 15 11 8 0 15 5 15 10 0 6 32 10 75 10 61 0 75 -3 75 -16 0 -8 4 -13
9 -10 5 3 11 -1 15 -9 4 -13 35 -15 186 -15 l181 0 -3 28 c-1 15 -6 29 -10 32
-4 4 -9 22 -10 42 -2 20 -7 36 -13 35 -5 -1 -9 5 -10 13 -1 8 -6 14 -13 12 -7
-1 -11 1 -11 5 4 23 -2 43 -11 38 -6 -3 -10 -1 -10 5 0 7 -11 21 -25 32 -14
11 -22 24 -19 30 4 6 2 8 -3 5 -6 -4 -16 0 -23 8 -7 8 -21 15 -32 15 -12 0
-17 4 -12 12 5 7 2 9 -8 5 -9 -3 -25 1 -37 9 -20 14 -50 22 -94 23 -10 1 -16
5 -13 9 3 5 -40 8 -94 8 -64 0 -100 -4 -100 -10 0 -6 -4 -5 -9 3 -6 9 -10 10
-12 2z m-62 -553 c-3 -8 -6 -5 -6 6 -1 11 2 17 5 13 3 -3 4 -12 1 -19z"/>
<path d="M1913 2984 c4 -7 -2 -14 -13 -17 -11 -3 -23 -1 -26 4 -3 5 -10 9 -15
9 -6 0 -8 -4 -5 -9 3 -4 -12 -5 -34 -1 -21 4 -44 4 -50 0 -7 -4 -10 -53 -9
-141 l2 -134 111 0 c61 0 117 4 124 8 12 8 13 -17 13 -530 0 -106 3 -193 7
-193 5 0 14 6 21 13 8 6 11 7 8 1 -4 -7 39 -10 140 -10 l146 1 1 55 c1 30 5
61 10 69 6 10 6 12 -2 7 -7 -4 -12 -1 -12 8 0 8 6 17 13 19 9 4 8 6 -2 6 -11
1 -11 4 0 18 10 11 10 14 2 9 -8 -4 -13 -1 -13 9 0 10 5 13 12 9 7 -5 8 -3 3
6 -13 21 -15 111 -3 104 7 -5 8 -2 2 7 -4 8 -10 38 -12 68 -2 40 0 51 9 45 8
-5 9 -3 3 7 -13 22 -14 42 -1 58 9 12 9 13 0 7 -8 -4 -13 -1 -13 9 0 10 5 13
12 9 7 -5 8 -3 3 6 -13 21 -15 111 -3 104 7 -5 8 -2 2 7 -12 19 -13 59 -2 59
5 0 7 4 4 8 -3 5 7 8 22 6 15 -1 27 -3 27 -4 0 -1 40 -3 88 -4 70 -1 90 2 97
14 8 13 10 13 10 0 1 -10 4 -8 10 5 5 14 3 24 -8 33 -14 11 -14 12 4 13 10 0
14 3 7 5 -8 4 -9 13 -3 30 8 19 6 24 -7 24 -15 0 -14 2 3 16 19 15 19 16 -1 9
-19 -6 -19 -5 -3 11 16 16 16 18 0 31 -9 8 -12 12 -5 9 6 -4 14 -2 18 4 3 5
-2 10 -12 11 -16 0 -16 1 2 9 11 5 14 9 6 9 -10 1 -11 4 -2 15 9 11 7 15 -13
20 -13 3 -32 9 -42 13 -10 3 -15 2 -12 -3 4 -5 -14 -8 -40 -6 -54 3 -51 3
-120 1 -29 -1 -55 1 -59 4 -9 10 -25 9 -20 0 3 -5 -12 -8 -34 -8 -21 0 -39 4
-39 9 0 5 -7 3 -15 -4 -14 -12 -20 -7 -16 14 1 5 -4 5 -11 -1 -21 -17 -74 -19
-94 -3 -10 8 -15 10 -11 3 4 -6 3 -14 -3 -18 -5 -3 -10 -1 -10 6 0 8 -4 8 -15
-1 -14 -12 -20 -7 -16 14 1 5 -4 5 -11 -1 -21 -17 -74 -19 -94 -3 -10 8 -15
10 -11 4z m-69 -272 c3 -5 -1 -9 -9 -9 -8 0 -12 4 -9 9 3 4 7 8 9 8 2 0 6 -4
9 -8z m140 0 c3 -5 -1 -9 -9 -9 -8 0 -12 4 -9 9 3 4 7 8 9 8 2 0 6 -4 9 -8z
m480 0 c3 -5 -1 -9 -9 -9 -8 0 -12 4 -9 9 3 4 7 8 9 8 2 0 6 -4 9 -8z m60 0
c3 -5 -1 -9 -9 -9 -8 0 -12 4 -9 9 3 4 7 8 9 8 2 0 6 -4 9 -8z"/>
<path d="M3220 2976 c0 -9 -10 -12 -30 -10 -21 3 -33 -1 -36 -11 -4 -8 -15
-15 -25 -15 -10 0 -19 -5 -19 -11 0 -5 -4 -8 -9 -4 -5 3 -16 -2 -24 -10 -9 -8
-20 -15 -26 -15 -6 0 -11 -7 -11 -15 0 -14 -12 -20 -33 -16 -5 1 -6 -3 -3 -8
3 -5 -8 -19 -24 -32 -16 -13 -30 -30 -30 -37 0 -7 -4 -10 -10 -7 -6 3 -10 -4
-10 -16 0 -12 -3 -20 -6 -16 -9 9 -44 -62 -44 -88 0 -12 -6 -30 -14 -40 -8
-11 -12 -25 -9 -32 3 -7 0 -19 -6 -27 -6 -7 -8 -16 -4 -20 11 -10 12 -37 2
-30 -5 3 -9 2 -10 -3 0 -4 -2 -18 -5 -30 -2 -13 1 -23 7 -23 5 0 7 5 3 12 -4
6 -3 8 4 5 12 -8 11 -25 -2 -46 -6 -9 -5 -12 1 -8 7 4 11 -8 12 -31 2 -68 2
-72 12 -77 5 -4 9 -17 9 -30 0 -12 7 -25 15 -29 8 -3 15 -9 14 -13 -3 -20 2
-34 11 -28 6 3 10 -1 10 -9 0 -9 5 -16 10 -16 6 0 10 -9 10 -21 0 -12 8 -23
20 -26 11 -3 17 -9 14 -14 -3 -5 2 -9 11 -9 9 0 13 -4 10 -10 -5 -9 6 -14 26
-12 3 1 12 -10 19 -23 12 -22 28 -30 53 -26 5 1 6 -3 2 -9 -5 -9 15 -15 38
-11 4 0 7 -6 7 -15 0 -11 6 -13 19 -9 11 3 26 -1 35 -10 12 -12 16 -13 16 -3
0 8 3 9 8 3 10 -14 20 -15 115 -15 124 0 162 4 160 16 -1 6 6 11 15 11 42 0
53 3 46 15 -5 7 -2 9 9 5 8 -3 25 3 37 13 13 11 26 17 30 15 4 -3 11 2 14 11
3 8 10 12 16 9 5 -3 10 -1 10 5 0 14 25 40 38 40 5 0 15 11 22 25 7 14 17 25
22 25 4 0 8 7 8 15 0 9 7 18 15 21 8 4 12 10 9 15 -3 5 2 12 11 15 8 4 15 11
14 18 -1 6 -1 20 0 31 1 17 3 18 11 5 7 -11 10 -2 10 33 0 26 5 47 11 47 5 0
9 8 8 18 -1 9 0 22 1 27 6 36 1 157 -9 168 -8 10 -7 17 2 27 9 10 9 11 0 6 -9
-5 -13 3 -13 29 0 22 -4 34 -10 30 -6 -4 -10 6 -10 22 0 17 -10 36 -26 49 -14
13 -24 26 -23 30 5 11 -44 73 -57 74 -7 0 -15 7 -18 16 -3 8 -11 12 -17 8 -8
-5 -9 -3 -5 5 5 8 0 14 -13 18 -11 3 -18 9 -15 14 3 5 -4 9 -15 9 -12 0 -21 4
-21 8 0 5 -6 9 -12 10 -27 2 -48 8 -55 17 -4 4 -2 5 6 0 10 -6 12 -4 7 4 -5 7
-14 10 -22 7 -8 -3 -14 0 -14 6 0 9 -3 9 -11 1 -9 -9 -15 -8 -24 1 -19 19
-241 16 -237 -2 1 -8 -2 -11 -8 -7 -6 3 -8 11 -5 16 4 5 1 9 -4 9 -6 0 -11 -6
-11 -14z m150 -297 c0 -4 9 -6 20 -4 11 2 20 0 20 -5 0 -4 8 -7 17 -6 19 3 43
-16 43 -33 0 -6 5 -11 11 -11 27 0 38 -36 39 -127 0 -51 -4 -95 -10 -98 -5 -3
-10 -13 -10 -21 0 -17 -36 -55 -44 -47 -3 4 -6 -2 -6 -11 0 -13 -6 -17 -20
-13 -11 3 -20 1 -20 -4 0 -16 -50 -22 -67 -8 -9 8 -14 9 -10 3 3 -6 0 -11 -8
-11 -8 0 -12 4 -9 9 3 4 -9 8 -26 8 -18 0 -33 6 -36 15 -4 8 -13 15 -21 15 -8
0 -12 4 -8 9 3 5 -2 16 -11 25 -8 9 -16 29 -16 46 -1 20 -6 30 -17 30 -10 0
-12 3 -6 8 12 8 12 43 0 62 -6 9 -4 12 6 8 10 -4 15 5 16 35 2 33 11 48 48 84
44 42 63 54 49 32 -4 -8 -1 -8 12 -1 11 5 25 7 33 4 8 -2 11 0 8 5 -3 5 0 10
8 10 8 0 15 -4 15 -8z"/>
<path d="M3495 2580 c3 -5 8 -10 11 -10 2 0 4 5 4 10 0 6 -5 10 -11 10 -5 0
-7 -4 -4 -10z"/>
<path d="M5234 2984 c8 -16 -17 -25 -35 -13 -17 11 -32 12 -26 2 6 -9 -132 -8
-140 1 -9 9 -25 7 -20 -1 3 -5 -16 -7 -41 -5 -54 3 -51 3 -120 1 -29 -1 -55 1
-59 4 -9 10 -25 8 -19 -2 3 -4 -5 -6 -17 -4 -31 5 -52 -11 -42 -33 12 -28 14
-45 6 -39 -4 2 -8 -14 -9 -36 -1 -22 2 -38 6 -35 5 3 9 -1 9 -9 0 -8 -4 -12
-9 -9 -4 3 -8 -7 -8 -21 0 -14 4 -24 8 -21 5 3 9 -1 9 -9 0 -8 -4 -12 -9 -9
-4 3 -8 -2 -8 -11 0 -9 4 -14 8 -11 5 3 9 -1 9 -9 0 -8 -4 -12 -9 -9 -4 3 -8
-2 -8 -11 0 -10 5 -14 13 -9 10 6 10 4 0 -7 -7 -7 -13 -23 -13 -35 0 -12 6
-25 13 -27 10 -4 10 -6 0 -6 -7 -1 -13 -10 -13 -20 0 -11 6 -22 13 -24 10 -4
10 -6 0 -6 -7 -1 -13 -6 -13 -12 0 -5 4 -8 8 -5 5 3 9 -1 9 -9 0 -8 -4 -12 -9
-9 -4 3 -8 -2 -8 -11 0 -9 4 -14 8 -11 5 3 9 -1 9 -9 0 -8 -4 -12 -9 -9 -4 3
-8 -2 -8 -10 0 -9 6 -16 13 -16 8 0 7 -4 -3 -10 -13 -8 -13 -13 -2 -31 8 -11
9 -18 3 -14 -6 3 -11 0 -11 -9 0 -8 6 -17 13 -19 10 -4 10 -6 0 -6 -7 -1 -13
-8 -13 -17 0 -8 4 -13 8 -10 5 3 9 -1 9 -9 0 -8 -4 -12 -9 -9 -13 8 -9 -31 5
-45 10 -11 10 -13 0 -7 -7 4 -13 2 -13 -3 0 -6 6 -11 13 -11 8 0 7 -4 -3 -10
-13 -9 -13 -11 0 -20 10 -6 11 -10 3 -10 -7 0 -13 -5 -13 -11 0 -5 5 -7 11 -4
6 4 5 -2 -2 -13 -11 -17 -10 -24 2 -38 9 -11 9 -15 2 -10 -7 4 -13 3 -13 -1 0
-5 6 -15 13 -22 10 -11 10 -13 0 -7 -7 4 -13 2 -13 -3 0 -6 6 -11 13 -11 8 0
7 -4 -3 -10 -13 -9 -13 -11 0 -20 10 -6 11 -10 3 -10 -7 0 -13 -5 -13 -11 0
-5 5 -7 11 -4 6 4 5 -2 -2 -13 -10 -16 -10 -23 2 -34 11 -11 48 -14 172 -14
l158 0 -1 116 c-1 63 -1 146 -1 183 l1 68 68 -1 c37 -1 99 -1 138 -1 l70 1 -1
93 c-1 50 -3 97 -5 102 -1 6 -1 12 0 15 15 40 13 40 -131 40 l-139 0 0 56 c0
44 3 54 13 46 17 -13 61 -9 83 8 11 9 15 10 10 3 -4 -7 -4 -13 1 -14 4 0 16
-2 26 -4 9 -2 14 1 11 7 -4 6 2 5 15 -1 17 -10 21 -9 21 4 0 9 5 13 10 10 6
-4 8 -10 6 -14 -9 -14 41 -6 60 9 11 9 15 10 10 3 -4 -7 -4 -13 1 -14 4 0 16
-2 26 -4 9 -2 14 1 11 7 -4 6 2 5 15 -1 14 -8 21 -8 21 -1 0 5 5 10 11 10 5 0
7 -5 3 -12 -4 -7 -3 -8 5 -4 6 4 9 12 6 17 -4 5 -3 9 2 9 4 0 8 54 8 120 0
139 5 133 -105 127 -49 -2 -68 1 -78 13 -8 8 -11 10 -8 4z m-149 -274 c3 -5 1
-10 -4 -10 -6 0 -11 5 -11 10 0 6 2 10 4 10 3 0 8 -4 11 -10z"/>
<path d="M6100 2978 c0 -5 5 -6 12 -2 7 4 8 3 4 -5 -6 -9 -11 -9 -22 0 -11 9
-14 8 -14 -2 0 -12 -2 -12 -9 0 -5 8 -11 9 -15 3 -4 -6 -15 -9 -26 -7 -13 2
-20 -2 -20 -11 0 -8 -3 -13 -7 -13 -27 4 -63 -3 -58 -11 3 -5 -1 -10 -9 -10
-9 0 -16 -6 -16 -12 0 -9 -4 -8 -10 2 -8 13 -10 12 -10 -2 0 -10 -6 -17 -12
-15 -7 1 -12 -4 -10 -12 2 -8 -3 -11 -13 -8 -8 4 -15 2 -15 -4 0 -12 -46 -59
-57 -59 -5 0 -9 -9 -10 -20 -1 -11 -9 -27 -17 -36 -9 -9 -14 -19 -11 -24 3 -5
1 -10 -4 -12 -5 -1 -11 -12 -13 -23 -1 -11 -7 -23 -12 -26 -5 -4 -11 -27 -13
-50 -2 -24 -9 -45 -14 -47 -14 -5 -11 -32 4 -32 9 0 8 -3 -1 -9 -15 -9 -14
-131 1 -142 4 -3 9 -29 10 -57 1 -33 5 -47 12 -42 7 6 12 -2 13 -23 2 -18 7
-33 12 -35 6 -2 10 -11 10 -20 0 -10 11 -26 25 -36 14 -10 25 -27 25 -37 0
-13 7 -19 23 -19 18 0 19 -2 7 -10 -14 -9 -7 -12 17 -9 3 0 10 -6 15 -15 5 -9
14 -14 19 -10 5 3 8 0 7 -8 -2 -7 7 -14 20 -16 12 -2 20 -8 17 -13 -4 -5 3 -9
14 -9 12 0 21 -4 21 -8 0 -5 6 -9 13 -10 59 -6 78 -10 89 -19 13 -11 35 -13
133 -12 118 1 136 3 131 14 -2 6 9 10 28 10 37 -2 58 4 51 14 -2 4 2 8 10 9 8
1 22 3 30 4 8 1 15 5 15 10 0 5 11 13 25 20 13 6 22 16 18 21 -4 6 0 8 11 4
10 -4 15 -3 11 3 -3 6 1 10 10 10 9 0 13 5 10 10 -3 6 -1 10 5 10 14 0 69 61
70 78 0 6 5 12 10 12 6 0 10 7 10 15 0 8 5 15 10 15 14 0 12 53 -2 69 -10 11
-10 13 0 7 9 -5 12 8 12 54 0 38 -4 59 -10 55 -5 -3 -10 -2 -10 3 0 6 7 13 17
16 14 6 14 8 -3 22 -10 9 -13 13 -6 9 9 -4 12 6 12 39 0 26 -5 46 -11 46 -5 0
-8 4 -5 8 8 13 -188 11 -196 -2 -5 -7 -8 -7 -8 -1 0 15 -160 17 -160 2 0 -8
-3 -8 -8 -2 -4 6 -35 11 -69 12 l-63 1 0 -124 c0 -142 -16 -126 123 -127 72 0
102 -12 57 -24 -11 -3 -20 -9 -20 -14 0 -5 -42 -9 -92 -9 -64 0 -88 3 -78 10
12 8 11 10 -7 10 -28 0 -73 44 -73 71 0 11 -6 22 -13 25 -10 3 -13 28 -13 89
0 66 3 82 13 74 9 -8 11 -6 8 10 -2 11 1 23 6 26 5 4 7 11 3 16 -3 5 0 8 8 7
7 -2 12 3 11 10 -2 6 2 13 7 13 6 1 16 2 23 3 6 1 11 7 10 14 -4 19 136 16
143 -3 4 -8 10 -13 14 -10 4 3 10 -2 14 -10 4 -11 21 -15 65 -15 38 0 61 -4
64 -12 4 -10 6 -10 6 0 1 8 19 12 57 12 41 0 53 -3 48 -12 -6 -10 -5 -10 7 -1
8 6 37 13 64 15 l50 3 -3 40 c-2 22 -9 43 -14 46 -6 4 -5 9 3 12 10 4 10 6 2
6 -7 1 -13 8 -13 16 0 8 -6 15 -12 15 -9 0 -8 4 2 10 13 8 12 10 -4 10 -11 0
-17 3 -13 6 3 3 -2 15 -11 26 -35 41 -61 68 -67 68 -3 0 -17 11 -31 25 -14 14
-30 23 -35 20 -5 -4 -9 -1 -9 4 0 6 -8 11 -18 11 -10 0 -27 6 -38 14 -11 8
-33 13 -48 12 -15 -2 -30 2 -32 9 -3 6 -11 12 -19 12 -8 0 -12 -4 -9 -8 2 -4
0 -11 -6 -14 -6 -4 -9 -1 -8 6 2 10 -19 14 -84 15 -49 0 -88 -3 -88 -8z"/>
<path d="M7033 2984 c4 -7 -2 -14 -13 -17 -11 -3 -23 -1 -26 4 -3 5 -10 9 -15
9 -6 0 -8 -4 -5 -9 3 -4 -12 -5 -34 -1 -22 4 -37 3 -34 -1 3 -5 -7 -4 -21 1
-31 12 -38 12 -32 3 5 -8 -63 -8 -93 -1 -13 3 -15 -56 -17 -472 -1 -261 0
-485 3 -497 2 -13 11 -23 20 -23 9 0 12 5 8 13 -6 9 -4 9 7 1 8 -7 62 -12 139
-12 136 0 172 4 149 19 -11 7 -10 9 5 9 20 0 20 0 0 15 -19 15 -19 15 1 8 18
-6 18 -5 6 10 -8 10 -9 17 -3 17 6 0 10 9 9 19 0 11 -5 17 -9 15 -13 -8 -9 11
5 25 10 11 10 13 0 7 -7 -4 -13 -3 -13 3 0 5 6 12 13 15 9 3 7 9 -6 19 -15 13
-15 15 -2 20 11 5 13 12 6 30 -7 18 -6 24 5 24 9 0 18 -13 21 -29 3 -15 9 -25
14 -22 8 4 11 -7 9 -32 -1 -3 9 -14 22 -25 13 -11 17 -18 11 -14 -7 3 -13 1
-13 -4 0 -6 7 -11 15 -11 9 0 15 -10 15 -26 0 -14 4 -23 10 -19 6 4 10 -5 10
-19 0 -16 6 -26 15 -26 8 0 12 -6 9 -13 -4 -11 30 -13 170 -13 121 0 173 3
168 10 -3 6 2 4 12 -4 16 -13 18 -12 14 10 -2 14 -9 24 -15 23 -7 -2 -10 6 -8
17 2 11 -1 23 -7 26 -7 5 -8 2 -3 -6 5 -9 4 -11 -3 -6 -7 4 -12 14 -12 22 0
18 -21 57 -37 67 -7 4 -10 14 -7 21 3 7 -2 16 -10 19 -9 4 -16 15 -16 25 0 10
-9 28 -20 40 -11 12 -20 28 -20 37 0 8 -4 15 -10 15 -5 0 -10 6 -10 14 0 7 -7
19 -15 26 -17 14 -11 30 12 30 9 0 22 8 30 18 8 9 12 11 8 5 -4 -9 -1 -11 9
-7 9 3 16 12 16 20 0 8 5 14 11 14 14 0 39 26 39 40 0 6 5 8 10 5 9 -5 15 15
11 38 0 4 7 7 16 7 15 0 16 2 3 10 -12 7 -12 10 -1 10 7 0 11 6 7 15 -3 8 -1
15 5 15 6 0 7 5 4 10 -3 6 -2 10 3 10 12 0 12 102 0 117 -5 7 -7 17 -4 22 4 5
2 12 -3 15 -5 3 -7 14 -4 25 3 11 -2 21 -11 24 -9 4 -16 18 -16 33 0 15 -3 25
-6 21 -8 -7 -34 17 -34 32 0 6 -5 11 -10 11 -6 0 -22 11 -36 25 -14 14 -30 23
-35 20 -5 -4 -9 -2 -9 3 0 5 -14 12 -31 16 -17 3 -28 9 -26 14 3 4 -25 7 -61
7 -45 0 -73 5 -86 15 -11 8 -16 10 -13 3 4 -6 3 -14 -3 -18 -5 -3 -10 -1 -10
6 0 8 -4 8 -15 -1 -14 -12 -20 -7 -16 14 1 5 -4 5 -11 -1 -21 -17 -74 -19 -94
-3 -10 8 -15 10 -11 4z m181 -297 c3 3 6 -1 6 -10 0 -9 5 -19 12 -23 7 -5 8
-3 3 6 -5 8 -4 11 2 7 13 -8 10 -76 -3 -85 -6 -4 -14 -14 -17 -22 -4 -11 -6
-10 -6 5 -1 16 -3 17 -10 6 -11 -17 -119 -22 -129 -7 -3 5 0 6 5 3 7 -4 10 3
9 17 0 13 -4 22 -8 19 -5 -2 -8 1 -8 6 0 6 5 11 11 11 8 0 7 5 -2 16 -10 13
-10 17 0 24 11 6 11 9 0 16 -18 11 89 23 112 12 9 -4 19 -4 23 -1z"/>
<path d="M8136 2981 c5 -11 1 -13 -20 -9 -24 5 -26 3 -26 -31 0 -21 -6 -43
-12 -50 -10 -10 -10 -12 -1 -7 9 5 12 -19 12 -99 0 -75 -3 -105 -12 -105 -9 0
-9 -2 0 -8 7 -5 12 -34 12 -77 0 -43 -5 -72 -12 -77 -9 -6 -9 -8 1 -8 16 0 15
-182 -1 -192 -9 -6 -9 -8 1 -8 6 0 12 -10 12 -23 0 -13 -6 -29 -12 -36 -10
-10 -10 -12 -1 -7 9 5 12 -19 12 -99 0 -80 -3 -104 -12 -99 -9 5 -9 3 1 -7 6
-7 12 -23 12 -34 0 -20 5 -21 99 -21 68 0 98 3 94 10 -5 7 -2 7 8 0 19 -16
289 -15 289 0 0 6 5 4 10 -4 9 -13 10 -13 10 0 0 13 1 13 10 0 9 -13 10 -13
10 1 0 8 9 16 23 16 46 3 65 7 61 15 -3 4 6 8 20 8 13 0 26 4 28 9 2 5 12 11
22 13 11 1 34 17 52 35 17 17 35 29 38 26 3 -4 6 1 6 11 0 9 5 14 10 11 6 -3
10 1 10 9 0 9 5 16 10 16 6 0 10 7 10 15 0 8 7 15 16 15 8 0 12 5 9 10 -3 6 2
10 12 10 14 0 15 2 4 9 -7 5 -9 10 -3 12 6 2 12 13 14 24 1 11 8 25 14 32 6 7
10 27 8 45 -3 24 -1 29 6 18 13 -20 13 -22 15 123 1 83 -3 127 -9 127 -6 0 -5
4 2 9 11 7 11 9 -2 14 -11 4 -16 19 -16 42 0 22 -4 34 -10 30 -6 -4 -10 5 -10
19 0 17 -6 26 -16 26 -8 0 -13 4 -10 9 3 4 -2 18 -12 29 -10 11 -27 32 -37 46
-11 14 -26 26 -33 26 -7 0 -11 4 -7 9 3 5 -4 12 -15 16 -11 4 -18 11 -14 16 3
5 2 9 -3 8 -22 -4 -43 2 -38 11 4 6 -5 10 -19 10 -14 0 -26 5 -26 10 0 6 -11
10 -25 10 -14 0 -25 6 -25 13 0 9 -2 9 -9 -1 -7 -11 -9 -11 -14 0 -4 11 -27
15 -91 15 -48 0 -90 3 -93 7 -9 9 -25 8 -20 -1 3 -5 -16 -7 -41 -5 -26 1 -51
3 -57 3 -5 0 -20 -2 -32 -5 -13 -3 -23 0 -23 6 0 7 -6 6 -15 -2 -14 -12 -20
-7 -16 14 1 5 -4 5 -11 -1 -17 -14 -69 -20 -86 -10 -7 5 -12 3 -12 -4 0 -7 -7
-4 -16 7 -8 10 -12 13 -8 5z m412 -314 c12 -1 22 -5 22 -10 0 -4 5 -5 10 -2 6
3 10 1 10 -4 0 -6 7 -11 16 -11 8 0 12 -4 9 -10 -3 -5 1 -10 9 -10 11 0 16
-10 17 -27 0 -25 1 -26 9 -8 8 19 9 19 9 -2 1 -33 2 -36 13 -57 8 -14 7 -17
-3 -11 -9 6 -11 3 -6 -9 4 -10 7 -22 7 -27 0 -6 6 -7 13 -4 6 4 5 1 -3 -7 -16
-14 -18 -21 -22 -67 -1 -16 -6 -27 -10 -25 -4 3 -8 -2 -8 -10 0 -9 -7 -16 -15
-16 -9 0 -12 -6 -9 -15 5 -11 2 -13 -10 -9 -11 4 -16 2 -14 -6 2 -7 -10 -14
-27 -17 -16 -2 -34 -8 -39 -14 -14 -13 -46 -11 -47 4 0 10 -2 10 -6 0 -2 -7
-18 -13 -34 -13 l-29 0 0 195 c0 216 -6 199 68 195 21 -1 32 3 32 12 0 11 2
11 9 0 4 -7 18 -14 29 -15z"/>
<path d="M1064 2962 c-10 -25 -11 -45 0 -59 5 -8 4 -19 -4 -28 -9 -10 -9 -15
-1 -15 6 0 11 -5 11 -11 0 -5 -4 -7 -10 -4 -14 9 -13 -8 2 -23 8 -8 8 -15 -2
-27 -8 -10 -9 -15 -1 -15 6 0 11 -5 11 -11 0 -5 -6 -7 -12 -3 -10 6 -10 4 0
-8 9 -11 10 -18 2 -23 -5 -3 -10 -17 -10 -31 0 -18 4 -23 13 -18 9 6 9 4 2 -7
-12 -16 -13 -39 -2 -56 4 -7 3 -21 -3 -32 -13 -26 -13 -34 3 -25 8 5 8 2 -2
-9 -9 -11 -10 -17 -2 -17 6 0 11 -5 11 -11 0 -5 -6 -7 -12 -3 -10 5 -10 4 -1
-6 8 -9 9 -17 1 -30 -7 -10 -8 -25 -3 -36 13 -32 14 -48 3 -61 -7 -9 -7 -13 1
-13 6 0 11 -5 11 -11 0 -5 -4 -7 -10 -4 -12 7 -14 -8 -2 -19 10 -10 10 -56 0
-50 -14 9 -9 -9 10 -30 12 -15 13 -17 1 -9 -13 11 -15 10 -14 -5 0 -9 4 -23 8
-29 5 -7 3 -21 -3 -32 -12 -23 -13 -34 -2 -28 4 3 7 -8 7 -23 1 -16 -3 -26 -7
-24 -4 3 -8 0 -8 -5 0 -6 5 -11 10 -11 6 0 10 -5 10 -11 0 -5 -4 -7 -10 -4
-13 8 -13 -8 1 -22 8 -8 8 -17 0 -31 -14 -26 -14 -35 -1 -27 6 3 10 0 10 -8 0
-11 19 -14 89 -14 61 1 88 4 83 11 -3 7 0 7 9 0 17 -14 463 -14 476 0 5 6 2 6
-7 1 -11 -6 -11 -4 2 11 18 21 21 61 5 82 -6 8 -6 12 1 12 14 0 7 77 -8 95 -8
10 -8 15 1 21 8 4 9 3 5 -4 -4 -7 -2 -12 3 -12 14 0 14 13 -1 28 -9 9 -9 12 0
12 7 0 12 4 12 8 0 4 -66 9 -147 9 -82 1 -160 2 -175 2 -26 1 -27 4 -26 46 0
34 4 45 17 45 14 0 14 2 1 10 -9 6 -10 10 -3 10 6 0 15 -4 18 -10 9 -14 42
-12 48 3 4 10 6 10 6 0 1 -7 10 -13 22 -13 13 0 18 4 13 13 -6 10 -4 10 7 0 7
-7 20 -13 29 -13 13 0 13 2 0 11 -13 10 -13 10 0 6 8 -3 24 -9 34 -13 15 -6
17 -4 11 6 -6 10 -4 11 6 4 8 -5 25 -10 39 -11 20 -3 22 -1 10 7 -9 6 -10 10
-3 10 6 0 15 -4 18 -10 3 -5 12 -10 18 -10 7 0 6 4 -3 10 -10 6 -11 10 -2 10
9 0 12 32 12 124 0 110 -2 124 -18 128 -9 3 -25 2 -34 -1 -9 -3 -69 -5 -133
-3 -91 3 -116 6 -112 16 3 8 0 19 -6 25 -8 8 -8 11 2 11 7 0 10 4 7 9 -8 12
18 21 42 14 11 -2 23 0 26 6 4 6 13 11 19 11 7 0 6 -4 -3 -10 -13 -9 -13 -10
1 -10 8 0 20 5 26 11 8 8 17 8 31 0 25 -13 35 -14 28 -3 -3 5 5 7 17 6 12 -1
22 -3 22 -4 0 -2 12 -3 27 -4 16 -1 24 2 20 9 -3 5 1 4 9 -2 12 -10 18 -10 29
0 8 8 11 8 6 0 -4 -7 1 -9 15 -6 16 4 17 8 7 14 -10 7 -10 9 2 9 11 0 16 9 15
29 0 17 -4 27 -10 23 -5 -3 -5 1 1 9 12 15 13 47 0 67 -4 7 -2 12 5 12 8 0 7
5 -2 17 -8 9 -9 14 -3 10 7 -4 10 8 9 36 -1 40 -3 42 -33 42 -18 0 -32 2 -32
5 0 3 -13 5 -30 5 -16 1 -30 -2 -30 -5 0 -8 -48 -5 -57 3 -9 10 -25 9 -19 -2
3 -4 -12 -5 -34 -1 -22 4 -37 3 -34 -1 3 -5 -7 -4 -21 1 -31 12 -38 12 -32 3
3 -5 -16 -7 -41 -5 -54 3 -51 3 -120 1 -29 -1 -55 1 -59 4 -9 10 -25 8 -19 -2
3 -4 -12 -5 -34 -1 -25 4 -37 4 -34 -2 4 -6 -3 -5 -14 1 -16 9 -21 7 -28 -7z
m663 -927 c0 -8 -4 -12 -9 -9 -5 3 -6 10 -3 15 9 13 12 11 12 -6z"/>
<path d="M3942 2962 c-9 -21 -9 -43 2 -60 4 -7 2 -19 -4 -27 -9 -11 -9 -15 -1
-15 6 0 11 -5 11 -11 0 -5 -4 -7 -10 -4 -14 9 -13 -8 2 -23 8 -8 8 -15 -2 -27
-8 -10 -9 -15 -1 -15 6 0 11 -5 11 -11 0 -5 -6 -7 -12 -3 -10 6 -10 4 0 -8 9
-11 10 -18 2 -23 -5 -3 -10 -11 -10 -16 0 -6 4 -8 8 -5 4 2 8 -6 8 -19 0 -13
-4 -21 -8 -19 -4 3 -8 0 -8 -5 0 -6 5 -11 10 -11 6 0 10 -5 10 -11 0 -5 -4 -7
-10 -4 -13 8 -13 -8 1 -22 8 -8 8 -17 0 -31 -14 -27 -14 -35 2 -26 8 5 8 2 -2
-9 -9 -11 -10 -17 -2 -17 6 0 11 -5 11 -11 0 -5 -6 -7 -12 -3 -10 6 -10 4 0
-8 9 -11 9 -18 3 -23 -12 -7 -9 -53 3 -73 4 -7 2 -19 -4 -27 -9 -11 -9 -15 -1
-15 6 0 11 -5 11 -11 0 -5 -4 -7 -10 -4 -14 9 -13 -8 2 -23 8 -8 8 -15 -2 -27
-8 -10 -9 -15 -1 -15 6 0 11 -5 11 -11 0 -5 -6 -7 -12 -3 -10 6 -10 4 0 -8 9
-11 10 -18 2 -23 -5 -3 -10 -11 -10 -16 0 -6 4 -8 8 -5 4 2 8 -6 8 -19 0 -13
-4 -21 -8 -19 -4 3 -8 0 -8 -5 0 -6 5 -11 10 -11 6 0 10 -5 10 -11 0 -5 -4 -7
-10 -4 -13 8 -13 -8 1 -22 8 -8 8 -17 0 -31 -14 -27 -14 -35 2 -26 8 5 8 2 -2
-9 -9 -11 -10 -17 -2 -17 6 0 11 -5 11 -11 0 -5 -6 -7 -12 -3 -8 5 -7 0 2 -11
8 -10 10 -16 3 -12 -8 5 -11 1 -10 -12 1 -15 4 -17 14 -9 10 8 12 7 8 -4 -5
-13 10 -15 97 -15 61 1 106 5 110 11 5 8 8 7 8 -1 0 -14 39 -14 59 1 11 8 13
8 7 -2 -6 -9 -3 -12 10 -10 22 3 35 62 22 91 -5 9 -5 17 -1 17 9 0 8 122 -1
145 -3 8 -2 15 2 15 4 0 7 23 6 51 l-2 50 31 -1 c18 -1 80 -2 139 -1 l106 1 1
125 2 125 -139 0 -139 0 1 52 c1 40 5 52 19 54 9 1 15 -1 12 -6 -8 -13 21 -6
41 10 11 9 15 10 10 3 -4 -7 -4 -13 1 -14 4 0 16 -2 26 -4 9 -2 14 1 11 7 -4
6 2 5 15 -1 17 -10 21 -9 21 4 0 9 5 13 10 10 6 -4 8 -10 6 -14 -9 -14 41 -6
60 9 11 9 15 10 10 3 -4 -7 -4 -13 1 -14 4 0 16 -2 26 -4 9 -2 14 1 11 7 -4 6
2 5 15 -1 17 -10 21 -9 21 4 0 9 5 13 10 10 6 -4 8 -10 5 -15 -3 -4 3 -7 12
-6 14 2 19 16 24 62 8 85 1 207 -12 215 -7 4 -25 3 -40 -1 -17 -5 -31 -5 -34
1 -4 5 -11 9 -16 9 -6 0 -8 -3 -6 -7 6 -9 -132 -8 -140 1 -9 9 -25 7 -20 -1 3
-5 -16 -7 -41 -5 -54 3 -51 3 -120 1 -29 -1 -55 1 -59 4 -9 10 -25 9 -20 0 6
-9 -77 -8 -90 0 -5 3 -15 2 -22 -3 -8 -4 -27 -4 -42 0 -23 7 -31 5 -37 -8z
m12 -498 c3 -8 2 -12 -4 -9 -6 3 -10 10 -10 16 0 14 7 11 14 -7z"/>
<path d="M7787 2974 c-3 -3 -38 -7 -78 -7 -67 -2 -72 -4 -74 -24 -1 -15 4 -23
14 -23 11 0 11 -3 -5 -16 -19 -15 -19 -16 0 -9 19 6 19 5 2 -14 -12 -13 -14
-20 -5 -23 7 -2 13 -12 15 -21 1 -9 -2 -15 -7 -11 -5 3 -6 11 -3 17 4 7 3 8
-1 4 -12 -11 -15 -37 -4 -37 5 0 4 -11 -1 -25 -8 -20 -6 -25 7 -25 15 0 14 -2
-3 -16 -19 -15 -19 -16 0 -9 19 6 19 5 2 -14 -12 -13 -14 -20 -5 -23 7 -2 13
-12 15 -21 1 -9 -2 -15 -7 -11 -5 3 -6 11 -3 17 4 7 3 8 -1 4 -12 -11 -15 -37
-4 -37 5 0 4 -11 -1 -25 -8 -20 -6 -25 7 -25 15 0 14 -2 -3 -16 -19 -15 -19
-16 0 -9 19 6 19 5 2 -14 -12 -13 -14 -20 -5 -23 7 -2 13 -12 15 -21 1 -9 -2
-15 -7 -11 -5 3 -6 11 -3 17 4 7 3 8 -1 4 -12 -11 -15 -37 -4 -37 5 0 4 -11
-1 -25 -8 -20 -6 -25 7 -25 15 0 14 -2 -3 -16 -19 -15 -19 -16 0 -9 19 6 19 5
2 -14 -12 -13 -14 -20 -5 -23 7 -2 13 -12 15 -21 1 -9 -2 -15 -7 -11 -5 3 -6
11 -3 17 4 7 3 8 -1 4 -12 -11 -15 -37 -4 -37 5 0 4 -11 -1 -25 -8 -20 -6 -25
7 -25 15 0 14 -2 -3 -16 -19 -15 -19 -16 0 -9 19 6 19 5 2 -14 -12 -13 -14
-20 -5 -23 7 -2 13 -12 15 -21 1 -9 -2 -15 -7 -11 -5 3 -6 11 -3 17 4 7 3 8
-1 4 -13 -11 -15 -37 -4 -37 6 0 5 -8 -1 -20 -8 -15 -8 -20 2 -20 8 0 9 -3 3
-8 -5 -4 -11 -20 -12 -37 -2 -21 0 -26 7 -15 5 8 6 18 3 24 -3 5 -1 6 6 2 9
-6 8 -14 -4 -32 -14 -22 -14 -24 2 -24 15 0 15 -2 -3 -16 -13 -11 -14 -14 -3
-11 9 3 16 -1 16 -9 0 -7 -5 -10 -11 -7 -6 4 -7 2 -3 -3 13 -13 287 -13 287 0
0 8 3 8 8 0 4 -6 14 -11 23 -11 14 0 16 49 14 491 -1 270 -2 495 -3 500 -1 5
-8 4 -14 -2 -8 -5 -22 -6 -33 -1 -26 10 -37 11 -32 2 6 -9 -77 -8 -91 1 -5 3
-12 3 -15 0z"/>
<path d="M460 2570 c0 -5 4 -10 9 -10 6 0 13 5 16 10 3 6 -1 10 -9 10 -9 0
-16 -4 -16 -10z"/>
<path d="M6050 1990 c0 -5 5 -10 11 -10 5 0 7 5 4 10 -3 6 -8 10 -11 10 -2 0
-4 -4 -4 -10z"/>
</g>
</svg>
